<svg width="380" height="380" viewBox="0 0 380 380" fill="none" xmlns="http://www.w3.org/2000/svg">
<rect width="380" height="380" rx="60" fill="#F2F6FF"/>
<rect x="53" y="255" width="274" height="75" rx="37.5" fill="white"/>
<path d="M128.739 301C128.256 301 127.881 300.867 127.614 300.6C127.348 300.333 127.214 299.967 127.214 299.5V284.85C127.214 284.367 127.356 283.983 127.639 283.7C127.939 283.4 128.331 283.25 128.814 283.25C129.314 283.25 129.706 283.4 129.989 283.7C130.289 283.983 130.439 284.367 130.439 284.85V298.35H137.464C138.464 298.35 138.964 298.792 138.964 299.675C138.964 300.558 138.464 301 137.464 301H128.739ZM150.408 297.65C150.692 297.65 150.917 297.758 151.083 297.975C151.267 298.192 151.358 298.483 151.358 298.85C151.358 299.367 151.05 299.8 150.433 300.15C149.867 300.467 149.225 300.725 148.508 300.925C147.792 301.108 147.108 301.2 146.458 301.2C144.492 301.2 142.933 300.633 141.783 299.5C140.633 298.367 140.058 296.817 140.058 294.85C140.058 293.6 140.308 292.492 140.808 291.525C141.308 290.558 142.008 289.808 142.908 289.275C143.825 288.742 144.858 288.475 146.008 288.475C147.108 288.475 148.067 288.717 148.883 289.2C149.7 289.683 150.333 290.367 150.783 291.25C151.233 292.133 151.458 293.175 151.458 294.375C151.458 295.092 151.142 295.45 150.508 295.45H143.133C143.233 296.6 143.558 297.45 144.108 298C144.658 298.533 145.458 298.8 146.508 298.8C147.042 298.8 147.508 298.733 147.908 298.6C148.325 298.467 148.792 298.283 149.308 298.05C149.808 297.783 150.175 297.65 150.408 297.65ZM146.083 290.675C145.233 290.675 144.55 290.942 144.033 291.475C143.533 292.008 143.233 292.775 143.133 293.775H148.783C148.75 292.758 148.5 291.992 148.033 291.475C147.567 290.942 146.917 290.675 146.083 290.675ZM159.315 288.475C161.015 288.475 162.273 288.9 163.09 289.75C163.923 290.583 164.34 291.858 164.34 293.575V299.675C164.34 300.125 164.206 300.483 163.94 300.75C163.673 301 163.306 301.125 162.84 301.125C162.406 301.125 162.048 300.992 161.765 300.725C161.498 300.458 161.365 300.108 161.365 299.675V299.125C161.081 299.775 160.631 300.283 160.015 300.65C159.415 301.017 158.715 301.2 157.915 301.2C157.098 301.2 156.356 301.033 155.69 300.7C155.023 300.367 154.498 299.908 154.115 299.325C153.731 298.742 153.54 298.092 153.54 297.375C153.54 296.475 153.765 295.767 154.215 295.25C154.681 294.733 155.431 294.358 156.465 294.125C157.498 293.892 158.923 293.775 160.74 293.775H161.365V293.2C161.365 292.383 161.19 291.792 160.84 291.425C160.49 291.042 159.923 290.85 159.14 290.85C158.656 290.85 158.165 290.925 157.665 291.075C157.165 291.208 156.573 291.408 155.89 291.675C155.456 291.892 155.14 292 154.94 292C154.64 292 154.39 291.892 154.19 291.675C154.006 291.458 153.915 291.175 153.915 290.825C153.915 290.542 153.981 290.3 154.115 290.1C154.265 289.883 154.506 289.683 154.84 289.5C155.423 289.183 156.115 288.933 156.915 288.75C157.731 288.567 158.531 288.475 159.315 288.475ZM158.54 298.95C159.373 298.95 160.048 298.675 160.565 298.125C161.098 297.558 161.365 296.833 161.365 295.95V295.425H160.915C159.798 295.425 158.931 295.475 158.315 295.575C157.698 295.675 157.256 295.85 156.99 296.1C156.723 296.35 156.59 296.692 156.59 297.125C156.59 297.658 156.773 298.1 157.14 298.45C157.523 298.783 157.99 298.95 158.54 298.95ZM174.341 288.525C174.774 288.492 175.116 288.583 175.366 288.8C175.616 289.017 175.741 289.342 175.741 289.775C175.741 290.225 175.632 290.558 175.416 290.775C175.199 290.992 174.807 291.133 174.241 291.2L173.491 291.275C172.507 291.375 171.782 291.708 171.316 292.275C170.866 292.842 170.641 293.55 170.641 294.4V299.65C170.641 300.133 170.491 300.508 170.191 300.775C169.891 301.025 169.516 301.15 169.066 301.15C168.616 301.15 168.241 301.025 167.941 300.775C167.657 300.508 167.516 300.133 167.516 299.65V289.975C167.516 289.508 167.657 289.15 167.941 288.9C168.241 288.65 168.607 288.525 169.041 288.525C169.474 288.525 169.824 288.65 170.091 288.9C170.357 289.133 170.491 289.475 170.491 289.925V290.925C170.807 290.192 171.274 289.625 171.891 289.225C172.524 288.825 173.224 288.6 173.991 288.55L174.341 288.525ZM184.186 288.475C185.653 288.475 186.744 288.892 187.461 289.725C188.178 290.558 188.536 291.817 188.536 293.5V299.65C188.536 300.117 188.394 300.483 188.111 300.75C187.844 301.017 187.469 301.15 186.986 301.15C186.503 301.15 186.119 301.017 185.836 300.75C185.553 300.483 185.411 300.117 185.411 299.65V293.675C185.411 292.725 185.228 292.033 184.861 291.6C184.511 291.167 183.953 290.95 183.186 290.95C182.286 290.95 181.561 291.233 181.011 291.8C180.478 292.367 180.211 293.125 180.211 294.075V299.65C180.211 300.117 180.069 300.483 179.786 300.75C179.503 301.017 179.119 301.15 178.636 301.15C178.153 301.15 177.769 301.017 177.486 300.75C177.219 300.483 177.086 300.117 177.086 299.65V289.975C177.086 289.542 177.228 289.192 177.511 288.925C177.794 288.658 178.178 288.525 178.661 288.525C179.094 288.525 179.444 288.658 179.711 288.925C179.994 289.175 180.136 289.508 180.136 289.925V290.6C180.553 289.917 181.111 289.392 181.811 289.025C182.511 288.658 183.303 288.475 184.186 288.475ZM213.022 288.475C214.355 288.475 215.372 288.875 216.072 289.675C216.789 290.458 217.147 291.733 217.147 293.5V299.65C217.147 300.133 216.997 300.508 216.697 300.775C216.414 301.025 216.039 301.15 215.572 301.15C215.122 301.15 214.747 301.025 214.447 300.775C214.164 300.508 214.022 300.133 214.022 299.65V293.5C214.022 292.583 213.855 291.933 213.522 291.55C213.205 291.15 212.714 290.95 212.047 290.95C211.23 290.95 210.58 291.233 210.097 291.8C209.614 292.35 209.372 293.108 209.372 294.075V299.65C209.372 300.133 209.222 300.508 208.922 300.775C208.639 301.025 208.272 301.15 207.822 301.15C207.372 301.15 206.997 301.025 206.697 300.775C206.397 300.508 206.247 300.133 206.247 299.65V293.5C206.247 292.583 206.08 291.933 205.747 291.55C205.43 291.15 204.939 290.95 204.272 290.95C203.455 290.95 202.805 291.233 202.322 291.8C201.855 292.35 201.622 293.108 201.622 294.075V299.65C201.622 300.133 201.472 300.508 201.172 300.775C200.872 301.025 200.497 301.15 200.047 301.15C199.597 301.15 199.222 301.025 198.922 300.775C198.639 300.508 198.497 300.133 198.497 299.65V289.975C198.497 289.508 198.647 289.15 198.947 288.9C199.247 288.65 199.622 288.525 200.072 288.525C200.505 288.525 200.855 288.65 201.122 288.9C201.405 289.133 201.547 289.475 201.547 289.925V290.525C201.93 289.858 202.439 289.35 203.072 289C203.722 288.65 204.464 288.475 205.297 288.475C207.13 288.475 208.355 289.242 208.972 290.775C209.339 290.075 209.88 289.517 210.597 289.1C211.314 288.683 212.122 288.475 213.022 288.475ZM225.898 301.2C224.648 301.2 223.548 300.942 222.598 300.425C221.665 299.908 220.94 299.167 220.423 298.2C219.907 297.233 219.648 296.108 219.648 294.825C219.648 293.542 219.907 292.425 220.423 291.475C220.94 290.508 221.665 289.767 222.598 289.25C223.548 288.733 224.648 288.475 225.898 288.475C227.148 288.475 228.24 288.733 229.173 289.25C230.123 289.767 230.848 290.508 231.348 291.475C231.865 292.425 232.123 293.542 232.123 294.825C232.123 296.108 231.865 297.233 231.348 298.2C230.848 299.167 230.123 299.908 229.173 300.425C228.24 300.942 227.148 301.2 225.898 301.2ZM225.873 298.775C226.89 298.775 227.665 298.442 228.198 297.775C228.732 297.108 228.998 296.125 228.998 294.825C228.998 293.542 228.732 292.567 228.198 291.9C227.665 291.217 226.898 290.875 225.898 290.875C224.898 290.875 224.123 291.217 223.573 291.9C223.04 292.567 222.773 293.542 222.773 294.825C222.773 296.125 223.04 297.108 223.573 297.775C224.107 298.442 224.873 298.775 225.873 298.775ZM241.528 288.525C241.961 288.492 242.303 288.583 242.553 288.8C242.803 289.017 242.928 289.342 242.928 289.775C242.928 290.225 242.82 290.558 242.603 290.775C242.386 290.992 241.995 291.133 241.428 291.2L240.678 291.275C239.695 291.375 238.97 291.708 238.503 292.275C238.053 292.842 237.828 293.55 237.828 294.4V299.65C237.828 300.133 237.678 300.508 237.378 300.775C237.078 301.025 236.703 301.15 236.253 301.15C235.803 301.15 235.428 301.025 235.128 300.775C234.845 300.508 234.703 300.133 234.703 299.65V289.975C234.703 289.508 234.845 289.15 235.128 288.9C235.428 288.65 235.795 288.525 236.228 288.525C236.661 288.525 237.011 288.65 237.278 288.9C237.545 289.133 237.678 289.475 237.678 289.925V290.925C237.995 290.192 238.461 289.625 239.078 289.225C239.711 288.825 240.411 288.6 241.178 288.55L241.528 288.525ZM253.704 297.65C253.988 297.65 254.213 297.758 254.379 297.975C254.563 298.192 254.654 298.483 254.654 298.85C254.654 299.367 254.346 299.8 253.729 300.15C253.163 300.467 252.521 300.725 251.804 300.925C251.088 301.108 250.404 301.2 249.754 301.2C247.788 301.2 246.229 300.633 245.079 299.5C243.929 298.367 243.354 296.817 243.354 294.85C243.354 293.6 243.604 292.492 244.104 291.525C244.604 290.558 245.304 289.808 246.204 289.275C247.121 288.742 248.154 288.475 249.304 288.475C250.404 288.475 251.363 288.717 252.179 289.2C252.996 289.683 253.629 290.367 254.079 291.25C254.529 292.133 254.754 293.175 254.754 294.375C254.754 295.092 254.438 295.45 253.804 295.45H246.429C246.529 296.6 246.854 297.45 247.404 298C247.954 298.533 248.754 298.8 249.804 298.8C250.338 298.8 250.804 298.733 251.204 298.6C251.621 298.467 252.088 298.283 252.604 298.05C253.104 297.783 253.471 297.65 253.704 297.65ZM249.379 290.675C248.529 290.675 247.846 290.942 247.329 291.475C246.829 292.008 246.529 292.775 246.429 293.775H252.079C252.046 292.758 251.796 291.992 251.329 291.475C250.863 290.942 250.213 290.675 249.379 290.675Z" fill="#234CAD"/>
<path d="M147.566 211.1C147.313 211.1 147.113 211.027 146.966 210.88C146.819 210.72 146.746 210.513 146.746 210.26V197.7C146.746 197.46 146.819 197.267 146.966 197.12C147.126 196.973 147.333 196.9 147.586 196.9H152.326C153.806 196.9 154.953 197.26 155.766 197.98C156.593 198.7 157.006 199.72 157.006 201.04C157.006 202.36 156.593 203.387 155.766 204.12C154.939 204.853 153.793 205.22 152.326 205.22H148.386V210.26C148.386 210.513 148.313 210.72 148.166 210.88C148.019 211.027 147.819 211.1 147.566 211.1ZM152.166 203.86C154.313 203.86 155.386 202.92 155.386 201.04C155.386 199.187 154.313 198.26 152.166 198.26H148.386V203.86H152.166ZM166.624 208.74C166.771 208.74 166.897 208.8 167.004 208.92C167.111 209.04 167.164 209.193 167.164 209.38C167.164 209.713 166.931 210.02 166.464 210.3C165.984 210.58 165.477 210.793 164.944 210.94C164.411 211.073 163.891 211.14 163.384 211.14C161.877 211.14 160.684 210.693 159.804 209.8C158.937 208.907 158.504 207.673 158.504 206.1C158.504 205.1 158.697 204.22 159.084 203.46C159.471 202.687 160.011 202.087 160.704 201.66C161.411 201.233 162.211 201.02 163.104 201.02C164.371 201.02 165.377 201.433 166.124 202.26C166.871 203.087 167.244 204.207 167.244 205.62C167.244 205.887 167.191 206.08 167.084 206.2C166.977 206.32 166.804 206.38 166.564 206.38H160.124C160.244 208.673 161.331 209.82 163.384 209.82C163.904 209.82 164.351 209.753 164.724 209.62C165.097 209.473 165.497 209.28 165.924 209.04C166.271 208.84 166.504 208.74 166.624 208.74ZM163.124 202.28C162.271 202.28 161.584 202.547 161.064 203.08C160.557 203.613 160.257 204.367 160.164 205.34H165.824C165.797 204.353 165.551 203.6 165.084 203.08C164.617 202.547 163.964 202.28 163.124 202.28ZM174.451 201.06C175.011 201.02 175.291 201.247 175.291 201.74C175.291 201.953 175.231 202.127 175.111 202.26C174.991 202.38 174.784 202.453 174.491 202.48L173.891 202.54C172.998 202.62 172.331 202.94 171.891 203.5C171.464 204.047 171.251 204.693 171.251 205.44V210.3C171.251 210.567 171.178 210.767 171.031 210.9C170.884 211.033 170.691 211.1 170.451 211.1C170.211 211.1 170.011 211.033 169.851 210.9C169.704 210.753 169.631 210.553 169.631 210.3V201.86C169.631 201.607 169.711 201.413 169.871 201.28C170.031 201.133 170.224 201.06 170.451 201.06C170.664 201.06 170.844 201.133 170.991 201.28C171.138 201.413 171.211 201.6 171.211 201.84V202.96C171.491 202.373 171.884 201.927 172.391 201.62C172.911 201.313 173.504 201.133 174.171 201.08L174.451 201.06ZM192.678 201.02C194.838 201.02 195.918 202.307 195.918 204.88V210.3C195.918 210.553 195.845 210.753 195.698 210.9C195.551 211.033 195.358 211.1 195.118 211.1C194.878 211.1 194.678 211.033 194.518 210.9C194.371 210.753 194.298 210.553 194.298 210.3V204.92C194.298 204.027 194.138 203.38 193.818 202.98C193.498 202.58 192.998 202.38 192.318 202.38C191.505 202.38 190.865 202.653 190.398 203.2C189.931 203.747 189.698 204.487 189.698 205.42V210.3C189.698 210.553 189.618 210.753 189.458 210.9C189.311 211.033 189.118 211.1 188.878 211.1C188.638 211.1 188.445 211.033 188.298 210.9C188.151 210.753 188.078 210.553 188.078 210.3V204.92C188.078 204.027 187.918 203.38 187.598 202.98C187.278 202.58 186.771 202.38 186.078 202.38C185.278 202.38 184.638 202.653 184.158 203.2C183.691 203.747 183.458 204.487 183.458 205.42V210.3C183.458 210.553 183.385 210.753 183.238 210.9C183.091 211.033 182.898 211.1 182.658 211.1C182.418 211.1 182.218 211.033 182.058 210.9C181.911 210.753 181.838 210.553 181.838 210.3V201.86C181.838 201.62 181.911 201.427 182.058 201.28C182.218 201.133 182.418 201.06 182.658 201.06C182.885 201.06 183.071 201.133 183.218 201.28C183.365 201.413 183.438 201.6 183.438 201.84V202.8C183.731 202.227 184.138 201.787 184.658 201.48C185.178 201.173 185.778 201.02 186.458 201.02C187.978 201.02 188.971 201.66 189.438 202.94C189.718 202.353 190.145 201.887 190.718 201.54C191.291 201.193 191.945 201.02 192.678 201.02ZM202.909 211.14C201.989 211.14 201.176 210.933 200.469 210.52C199.776 210.107 199.236 209.52 198.849 208.76C198.476 207.987 198.289 207.093 198.289 206.08C198.289 205.067 198.476 204.18 198.849 203.42C199.236 202.647 199.776 202.053 200.469 201.64C201.176 201.227 201.989 201.02 202.909 201.02C203.829 201.02 204.642 201.227 205.349 201.64C206.056 202.053 206.596 202.647 206.969 203.42C207.356 204.18 207.549 205.067 207.549 206.08C207.549 207.093 207.356 207.987 206.969 208.76C206.596 209.52 206.056 210.107 205.349 210.52C204.642 210.933 203.829 211.14 202.909 211.14ZM202.909 209.8C203.869 209.8 204.602 209.487 205.109 208.86C205.629 208.22 205.889 207.293 205.889 206.08C205.889 204.893 205.629 203.98 205.109 203.34C204.589 202.687 203.856 202.36 202.909 202.36C201.962 202.36 201.229 202.687 200.709 203.34C200.189 203.98 199.929 204.893 199.929 206.08C199.929 207.28 200.182 208.2 200.689 208.84C201.209 209.48 201.949 209.8 202.909 209.8ZM214.863 201.02C217.196 201.02 218.363 202.307 218.363 204.88V210.3C218.363 210.553 218.29 210.753 218.143 210.9C218.01 211.033 217.816 211.1 217.563 211.1C217.31 211.1 217.11 211.033 216.963 210.9C216.816 210.753 216.743 210.553 216.743 210.3V204.98C216.743 204.073 216.563 203.413 216.203 203C215.856 202.587 215.296 202.38 214.523 202.38C213.63 202.38 212.916 202.653 212.383 203.2C211.85 203.747 211.583 204.487 211.583 205.42V210.3C211.583 210.553 211.51 210.753 211.363 210.9C211.23 211.033 211.036 211.1 210.783 211.1C210.53 211.1 210.33 211.033 210.183 210.9C210.036 210.753 209.963 210.553 209.963 210.3V201.86C209.963 201.62 210.036 201.427 210.183 201.28C210.33 201.133 210.53 201.06 210.783 201.06C211.023 201.06 211.21 201.133 211.343 201.28C211.49 201.427 211.563 201.613 211.563 201.84V202.86C211.883 202.26 212.33 201.807 212.903 201.5C213.476 201.18 214.13 201.02 214.863 201.02ZM225.83 209.82C226.297 209.86 226.53 210.073 226.53 210.46C226.53 210.687 226.443 210.86 226.27 210.98C226.11 211.087 225.863 211.127 225.53 211.1L224.99 211.06C223.923 210.98 223.137 210.66 222.63 210.1C222.123 209.54 221.87 208.693 221.87 207.56V202.54H220.53C220.303 202.54 220.123 202.487 219.99 202.38C219.87 202.26 219.81 202.107 219.81 201.92C219.81 201.72 219.87 201.56 219.99 201.44C220.123 201.32 220.303 201.26 220.53 201.26H221.87V199C221.87 198.747 221.943 198.553 222.09 198.42C222.237 198.273 222.437 198.2 222.69 198.2C222.93 198.2 223.123 198.273 223.27 198.42C223.417 198.553 223.49 198.747 223.49 199V201.26H225.71C225.923 201.26 226.09 201.32 226.21 201.44C226.343 201.56 226.41 201.72 226.41 201.92C226.41 202.107 226.343 202.26 226.21 202.38C226.09 202.487 225.923 202.54 225.71 202.54H223.49V207.64C223.49 208.373 223.637 208.907 223.93 209.24C224.237 209.56 224.69 209.74 225.29 209.78L225.83 209.82ZM233.047 201.02C234.194 201.02 235.06 201.347 235.647 202C236.234 202.64 236.527 203.6 236.527 204.88V210.3C236.527 210.553 236.454 210.753 236.307 210.9C236.16 211.033 235.967 211.1 235.727 211.1C235.474 211.1 235.274 211.033 235.127 210.9C234.98 210.753 234.907 210.553 234.907 210.3V204.92C234.907 204.053 234.727 203.413 234.367 203C234.02 202.587 233.46 202.38 232.687 202.38C231.794 202.38 231.08 202.653 230.547 203.2C230.014 203.747 229.747 204.487 229.747 205.42V210.3C229.747 210.553 229.674 210.753 229.527 210.9C229.394 211.033 229.2 211.1 228.947 211.1C228.694 211.1 228.494 211.033 228.347 210.9C228.2 210.753 228.127 210.553 228.127 210.3V197.58C228.127 197.353 228.2 197.167 228.347 197.02C228.507 196.873 228.707 196.8 228.947 196.8C229.2 196.8 229.394 196.873 229.527 197.02C229.674 197.153 229.747 197.34 229.747 197.58V202.82C230.067 202.233 230.514 201.787 231.087 201.48C231.66 201.173 232.314 201.02 233.047 201.02Z" fill="#234CAD"/>
<path d="M188.118 155.856C188.118 158.843 187.073 161.363 184.982 163.416C182.929 165.469 180.147 166.757 176.638 167.28V170.808C176.638 171.667 176.377 172.357 175.854 172.88C175.331 173.44 174.641 173.72 173.782 173.72C172.923 173.72 172.233 173.44 171.71 172.88C171.187 172.357 170.926 171.667 170.926 170.808V167.392C168.798 167.205 166.726 166.757 164.71 166.048C162.694 165.339 160.958 164.405 159.502 163.248C159.017 162.912 158.681 162.539 158.494 162.128C158.307 161.717 158.214 161.213 158.214 160.616C158.214 159.832 158.438 159.141 158.886 158.544C159.371 157.947 159.913 157.648 160.51 157.648C160.883 157.648 161.219 157.723 161.518 157.872C161.854 157.984 162.283 158.189 162.806 158.488C164.523 159.608 166.203 160.429 167.846 160.952C169.526 161.475 171.281 161.736 173.11 161.736C175.611 161.736 177.534 161.251 178.878 160.28C180.259 159.309 180.95 157.909 180.95 156.08C180.95 154.997 180.577 154.12 179.83 153.448C179.083 152.776 178.15 152.253 177.03 151.88C175.91 151.469 174.342 151.003 172.326 150.48C169.526 149.771 167.249 149.061 165.494 148.352C163.739 147.605 162.227 146.485 160.958 144.992C159.689 143.499 159.054 141.483 159.054 138.944C159.054 135.92 160.137 133.344 162.302 131.216C164.467 129.088 167.305 127.763 170.814 127.24V123.712C170.814 122.853 171.075 122.163 171.598 121.64C172.121 121.08 172.811 120.8 173.67 120.8C174.529 120.8 175.219 121.08 175.742 121.64C176.265 122.163 176.526 122.853 176.526 123.712V127.184C180.297 127.669 183.545 129.032 186.27 131.272C187.166 131.944 187.614 132.821 187.614 133.904C187.614 134.688 187.371 135.379 186.886 135.976C186.438 136.573 185.897 136.872 185.262 136.872C184.926 136.872 184.59 136.816 184.254 136.704C183.955 136.592 183.545 136.368 183.022 136.032C181.491 134.949 180.035 134.147 178.654 133.624C177.31 133.064 175.705 132.784 173.838 132.784C171.523 132.784 169.675 133.307 168.294 134.352C166.913 135.36 166.222 136.76 166.222 138.552C166.222 139.784 166.614 140.792 167.398 141.576C168.182 142.323 169.171 142.901 170.366 143.312C171.561 143.723 173.185 144.189 175.238 144.712C177.963 145.384 180.185 146.075 181.902 146.784C183.619 147.493 185.075 148.576 186.27 150.032C187.502 151.451 188.118 153.392 188.118 155.856ZM205.512 127.016C210.515 127.016 214.36 128.715 217.048 132.112C219.773 135.472 221.136 140.288 221.136 146.56C221.136 150.853 220.501 154.587 219.232 157.76C217.963 160.896 216.133 163.304 213.744 164.984C211.392 166.664 208.611 167.504 205.4 167.504C203.272 167.504 201.125 167.131 198.96 166.384C196.832 165.6 195.021 164.555 193.528 163.248C193.043 162.837 192.688 162.445 192.464 162.072C192.277 161.661 192.184 161.176 192.184 160.616C192.184 159.795 192.408 159.104 192.856 158.544C193.341 157.947 193.901 157.648 194.536 157.648C194.909 157.648 195.264 157.723 195.6 157.872C195.936 157.984 196.347 158.189 196.832 158.488C199.931 160.653 202.693 161.736 205.12 161.736C207.845 161.736 209.992 160.485 211.56 157.984C213.128 155.445 213.949 151.899 214.024 147.344C213.165 149.024 211.877 150.368 210.16 151.376C208.443 152.347 206.52 152.832 204.392 152.832C202.04 152.832 199.949 152.309 198.12 151.264C196.291 150.181 194.853 148.688 193.808 146.784C192.8 144.843 192.296 142.64 192.296 140.176C192.296 137.637 192.856 135.379 193.976 133.4C195.133 131.384 196.701 129.816 198.68 128.696C200.696 127.576 202.973 127.016 205.512 127.016ZM205.904 147.12C207.995 147.12 209.675 146.467 210.944 145.16C212.251 143.816 212.904 142.08 212.904 139.952C212.904 137.787 212.251 136.051 210.944 134.744C209.675 133.4 207.995 132.728 205.904 132.728C203.851 132.728 202.208 133.4 200.976 134.744C199.744 136.051 199.128 137.787 199.128 139.952C199.128 142.117 199.744 143.853 200.976 145.16C202.208 146.467 203.851 147.12 205.904 147.12Z" fill="#234CAD"/>
<path d="M173.231 68.95C174.248 69.2167 175.031 69.7167 175.581 70.45C176.148 71.1833 176.431 72.1 176.431 73.2C176.431 74.75 175.923 75.9417 174.906 76.775C173.889 77.5917 172.448 78 170.581 78H164.281C163.964 78 163.706 77.9083 163.506 77.725C163.323 77.5417 163.231 77.3 163.231 77V61.375C163.231 61.075 163.323 60.8333 163.506 60.65C163.706 60.4667 163.964 60.375 164.281 60.375H170.306C172.123 60.375 173.531 60.775 174.531 61.575C175.531 62.375 176.031 63.5083 176.031 64.975C176.031 65.925 175.781 66.7417 175.281 67.425C174.798 68.1083 174.114 68.6167 173.231 68.95ZM165.256 68.2H170.006C171.323 68.2 172.314 67.9333 172.981 67.4C173.664 66.8667 174.006 66.0917 174.006 65.075C174.006 63.075 172.673 62.075 170.006 62.075H165.256V68.2ZM170.381 76.3C171.764 76.3 172.781 76.05 173.431 75.55C174.098 75.0333 174.431 74.2333 174.431 73.15C174.431 70.9833 173.081 69.9 170.381 69.9H165.256V76.3H170.381ZM184.752 65.525C187.802 65.525 189.327 67.125 189.327 70.325V77.125C189.327 77.425 189.235 77.6667 189.052 77.85C188.885 78.0333 188.652 78.125 188.352 78.125C188.052 78.125 187.81 78.0333 187.627 77.85C187.444 77.6667 187.352 77.425 187.352 77.125V75.925C187.035 76.6417 186.552 77.2 185.902 77.6C185.252 77.9833 184.502 78.175 183.652 78.175C182.869 78.175 182.144 78.0167 181.477 77.7C180.827 77.3833 180.31 76.9417 179.927 76.375C179.544 75.8083 179.352 75.1833 179.352 74.5C179.352 73.5833 179.585 72.875 180.052 72.375C180.519 71.8583 181.285 71.4917 182.352 71.275C183.419 71.0417 184.902 70.925 186.802 70.925H187.352V70.1C187.352 69.1 187.144 68.3667 186.727 67.9C186.327 67.4333 185.669 67.2 184.752 67.2C183.619 67.2 182.469 67.5083 181.302 68.125C180.852 68.4083 180.535 68.55 180.352 68.55C180.152 68.55 179.985 68.475 179.852 68.325C179.719 68.175 179.652 67.9833 179.652 67.75C179.652 67.5167 179.719 67.3167 179.852 67.15C180.002 66.9667 180.235 66.7833 180.552 66.6C181.135 66.2667 181.794 66.0083 182.527 65.825C183.277 65.625 184.019 65.525 184.752 65.525ZM183.927 76.575C184.927 76.575 185.744 76.2417 186.377 75.575C187.027 74.8917 187.352 74.0167 187.352 72.95V72.225H186.902C185.435 72.225 184.319 72.2917 183.552 72.425C182.785 72.5417 182.235 72.75 181.902 73.05C181.585 73.3333 181.427 73.7583 181.427 74.325C181.427 74.975 181.66 75.5167 182.127 75.95C182.61 76.3667 183.21 76.575 183.927 76.575ZM197.134 78.175C196.367 78.175 195.634 78.0833 194.934 77.9C194.25 77.7167 193.642 77.4583 193.109 77.125C192.809 76.925 192.592 76.7417 192.459 76.575C192.342 76.3917 192.284 76.175 192.284 75.925C192.284 75.7083 192.342 75.5333 192.459 75.4C192.592 75.25 192.759 75.175 192.959 75.175C193.159 75.175 193.45 75.3 193.834 75.55C194.334 75.85 194.825 76.0917 195.309 76.275C195.809 76.4417 196.425 76.525 197.159 76.525C198.059 76.525 198.759 76.3667 199.259 76.05C199.759 75.7333 200.009 75.275 200.009 74.675C200.009 74.3083 199.917 74.0167 199.734 73.8C199.55 73.5667 199.234 73.3667 198.784 73.2C198.334 73.0167 197.675 72.8333 196.809 72.65C195.342 72.3333 194.292 71.9083 193.659 71.375C193.025 70.8417 192.709 70.1167 192.709 69.2C192.709 68.4833 192.909 67.85 193.309 67.3C193.709 66.75 194.259 66.3167 194.959 66C195.675 65.6833 196.484 65.525 197.384 65.525C198.034 65.525 198.659 65.6167 199.259 65.8C199.875 65.9667 200.417 66.2083 200.884 66.525C201.45 66.925 201.734 67.3417 201.734 67.775C201.734 67.9917 201.667 68.175 201.534 68.325C201.4 68.475 201.242 68.55 201.059 68.55C200.859 68.55 200.559 68.4083 200.159 68.125C199.692 67.825 199.25 67.5917 198.834 67.425C198.417 67.2583 197.9 67.175 197.284 67.175C196.5 67.175 195.867 67.35 195.384 67.7C194.917 68.05 194.684 68.5167 194.684 69.1C194.684 69.4667 194.767 69.7667 194.934 70C195.117 70.2167 195.409 70.4167 195.809 70.6C196.225 70.7667 196.817 70.9333 197.584 71.1C198.717 71.35 199.592 71.625 200.209 71.925C200.842 72.225 201.292 72.5917 201.559 73.025C201.825 73.4583 201.959 74.0083 201.959 74.675C201.959 75.725 201.517 76.575 200.634 77.225C199.75 77.8583 198.584 78.175 197.134 78.175ZM206.07 78.125C205.77 78.125 205.52 78.0417 205.32 77.875C205.137 77.6917 205.045 77.4417 205.045 77.125V66.575C205.045 66.2583 205.137 66.0167 205.32 65.85C205.52 65.6667 205.77 65.575 206.07 65.575C206.37 65.575 206.612 65.6667 206.795 65.85C206.979 66.0167 207.07 66.2583 207.07 66.575V77.125C207.07 77.4583 206.979 77.7083 206.795 77.875C206.612 78.0417 206.37 78.125 206.07 78.125ZM206.07 62.95C205.67 62.95 205.345 62.8333 205.095 62.6C204.845 62.3667 204.72 62.0583 204.72 61.675C204.72 61.3083 204.845 61.0083 205.095 60.775C205.345 60.5417 205.67 60.425 206.07 60.425C206.47 60.425 206.795 60.5417 207.045 60.775C207.295 61.0083 207.42 61.3083 207.42 61.675C207.42 62.0583 207.295 62.3667 207.045 62.6C206.795 62.8333 206.47 62.95 206.07 62.95ZM215.881 78.175C214.748 78.175 213.739 77.9167 212.856 77.4C211.989 76.8833 211.314 76.15 210.831 75.2C210.364 74.25 210.131 73.15 210.131 71.9C210.131 70.65 210.373 69.5417 210.856 68.575C211.356 67.6083 212.048 66.8583 212.931 66.325C213.814 65.7917 214.831 65.525 215.981 65.525C216.614 65.525 217.239 65.6167 217.856 65.8C218.489 65.9667 219.039 66.2167 219.506 66.55C219.806 66.75 220.014 66.95 220.131 67.15C220.264 67.3333 220.331 67.5417 220.331 67.775C220.331 68.0083 220.264 68.2 220.131 68.35C220.014 68.5 219.856 68.575 219.656 68.575C219.539 68.575 219.414 68.5417 219.281 68.475C219.148 68.4083 219.031 68.3417 218.931 68.275C218.848 68.2083 218.789 68.1667 218.756 68.15C218.323 67.8667 217.906 67.6417 217.506 67.475C217.123 67.3083 216.648 67.225 216.081 67.225C214.864 67.225 213.914 67.6417 213.231 68.475C212.564 69.2917 212.231 70.4333 212.231 71.9C212.231 73.3667 212.564 74.5 213.231 75.3C213.914 76.1 214.864 76.5 216.081 76.5C216.648 76.5 217.131 76.4167 217.531 76.25C217.948 76.0833 218.364 75.8583 218.781 75.575C218.964 75.4583 219.139 75.3583 219.306 75.275C219.473 75.1917 219.614 75.15 219.731 75.15C219.914 75.15 220.064 75.225 220.181 75.375C220.314 75.525 220.381 75.7167 220.381 75.95C220.381 76.1667 220.323 76.3667 220.206 76.55C220.089 76.7167 219.873 76.9083 219.556 77.125C219.089 77.4417 218.523 77.7 217.856 77.9C217.206 78.0833 216.548 78.175 215.881 78.175Z" fill="#234CAD"/>
</svg>
