<svg width="100" height="100" viewBox="0 0 100 100" fill="none" xmlns="http://www.w3.org/2000/svg">
<circle cx="50" cy="50" r="50" fill="#F2F6FF"/>
<path d="M40.5 47C40.5 47.8284 41.1716 48.5 42 48.5C42.8284 48.5 43.5 47.8284 43.5 47H40.5ZM56.5 47C56.5 47.8284 57.1716 48.5 58 48.5C58.8284 48.5 59.5 47.8284 59.5 47H56.5ZM42 48.5C42.8284 48.5 43.5 47.8284 43.5 47C43.5 46.1716 42.8284 45.5 42 45.5V48.5ZM58 45.5C57.1716 45.5 56.5 46.1716 56.5 47C56.5 47.8284 57.1716 48.5 58 48.5V45.5ZM42 45.5C41.1716 45.5 40.5 46.1716 40.5 47C40.5 47.8284 41.1716 48.5 42 48.5V45.5ZM58 48.5C58.8284 48.5 59.5 47.8284 59.5 47C59.5 46.1716 58.8284 45.5 58 45.5V48.5ZM43.5 47V37H40.5V47H43.5ZM43.5 37C43.5 33.4101 46.4101 30.5 50 30.5V27.5C44.7533 27.5 40.5 31.7533 40.5 37H43.5ZM50 30.5C53.5898 30.5 56.5 33.4102 56.5 37H59.5C59.5 31.7533 55.2466 27.5 50 27.5V30.5ZM56.5 37V47H59.5V37H56.5ZM42 45.5H40V48.5H42V45.5ZM40 45.5C36.9624 45.5 34.5 47.9624 34.5 51H37.5C37.5 49.6192 38.6193 48.5 40 48.5V45.5ZM34.5 51V63H37.5V51H34.5ZM34.5 63C34.5 68.2466 38.7533 72.5 44 72.5V69.5C40.4102 69.5 37.5 66.5898 37.5 63H34.5ZM44 72.5H56V69.5H44V72.5ZM56 72.5C61.2466 72.5 65.5 68.2466 65.5 63H62.5C62.5 66.5898 59.5898 69.5 56 69.5V72.5ZM65.5 63V51H62.5V63H65.5ZM65.5 51C65.5 47.9624 63.0376 45.5 60 45.5V48.5C61.3808 48.5 62.5 49.6192 62.5 51H65.5ZM60 45.5H58V48.5H60V45.5ZM42 48.5H58V45.5H42V48.5ZM49.5 59C49.5 58.7239 49.7239 58.5 50 58.5V61.5C51.3807 61.5 52.5 60.3807 52.5 59H49.5ZM50 58.5C50.2761 58.5 50.5 58.7239 50.5 59H47.5C47.5 60.3807 48.6193 61.5 50 61.5V58.5ZM50.5 59C50.5 59.2761 50.2761 59.5 50 59.5V56.5C48.6193 56.5 47.5 57.6193 47.5 59H50.5ZM50 59.5C49.7239 59.5 49.5 59.2761 49.5 59H52.5C52.5 57.6193 51.3807 56.5 50 56.5V59.5Z" fill="#234CAD"/>
</svg>
