<svg width="380" height="380" viewBox="0 0 380 380" fill="none" xmlns="http://www.w3.org/2000/svg">
<rect width="380" height="380" rx="60" fill="#F2F6FF"/>
<rect x="53" y="255" width="274" height="75" rx="37.5" fill="white"/>
<path d="M128.739 301C128.256 301 127.881 300.867 127.614 300.6C127.348 300.333 127.214 299.967 127.214 299.5V284.85C127.214 284.367 127.356 283.983 127.639 283.7C127.939 283.4 128.331 283.25 128.814 283.25C129.314 283.25 129.706 283.4 129.989 283.7C130.289 283.983 130.439 284.367 130.439 284.85V298.35H137.464C138.464 298.35 138.964 298.792 138.964 299.675C138.964 300.558 138.464 301 137.464 301H128.739ZM150.408 297.65C150.692 297.65 150.917 297.758 151.083 297.975C151.267 298.192 151.358 298.483 151.358 298.85C151.358 299.367 151.05 299.8 150.433 300.15C149.867 300.467 149.225 300.725 148.508 300.925C147.792 301.108 147.108 301.2 146.458 301.2C144.492 301.2 142.933 300.633 141.783 299.5C140.633 298.367 140.058 296.817 140.058 294.85C140.058 293.6 140.308 292.492 140.808 291.525C141.308 290.558 142.008 289.808 142.908 289.275C143.825 288.742 144.858 288.475 146.008 288.475C147.108 288.475 148.067 288.717 148.883 289.2C149.7 289.683 150.333 290.367 150.783 291.25C151.233 292.133 151.458 293.175 151.458 294.375C151.458 295.092 151.142 295.45 150.508 295.45H143.133C143.233 296.6 143.558 297.45 144.108 298C144.658 298.533 145.458 298.8 146.508 298.8C147.042 298.8 147.508 298.733 147.908 298.6C148.325 298.467 148.792 298.283 149.308 298.05C149.808 297.783 150.175 297.65 150.408 297.65ZM146.083 290.675C145.233 290.675 144.55 290.942 144.033 291.475C143.533 292.008 143.233 292.775 143.133 293.775H148.783C148.75 292.758 148.5 291.992 148.033 291.475C147.567 290.942 146.917 290.675 146.083 290.675ZM159.315 288.475C161.015 288.475 162.273 288.9 163.09 289.75C163.923 290.583 164.34 291.858 164.34 293.575V299.675C164.34 300.125 164.206 300.483 163.94 300.75C163.673 301 163.306 301.125 162.84 301.125C162.406 301.125 162.048 300.992 161.765 300.725C161.498 300.458 161.365 300.108 161.365 299.675V299.125C161.081 299.775 160.631 300.283 160.015 300.65C159.415 301.017 158.715 301.2 157.915 301.2C157.098 301.2 156.356 301.033 155.69 300.7C155.023 300.367 154.498 299.908 154.115 299.325C153.731 298.742 153.54 298.092 153.54 297.375C153.54 296.475 153.765 295.767 154.215 295.25C154.681 294.733 155.431 294.358 156.465 294.125C157.498 293.892 158.923 293.775 160.74 293.775H161.365V293.2C161.365 292.383 161.19 291.792 160.84 291.425C160.49 291.042 159.923 290.85 159.14 290.85C158.656 290.85 158.165 290.925 157.665 291.075C157.165 291.208 156.573 291.408 155.89 291.675C155.456 291.892 155.14 292 154.94 292C154.64 292 154.39 291.892 154.19 291.675C154.006 291.458 153.915 291.175 153.915 290.825C153.915 290.542 153.981 290.3 154.115 290.1C154.265 289.883 154.506 289.683 154.84 289.5C155.423 289.183 156.115 288.933 156.915 288.75C157.731 288.567 158.531 288.475 159.315 288.475ZM158.54 298.95C159.373 298.95 160.048 298.675 160.565 298.125C161.098 297.558 161.365 296.833 161.365 295.95V295.425H160.915C159.798 295.425 158.931 295.475 158.315 295.575C157.698 295.675 157.256 295.85 156.99 296.1C156.723 296.35 156.59 296.692 156.59 297.125C156.59 297.658 156.773 298.1 157.14 298.45C157.523 298.783 157.99 298.95 158.54 298.95ZM174.341 288.525C174.774 288.492 175.116 288.583 175.366 288.8C175.616 289.017 175.741 289.342 175.741 289.775C175.741 290.225 175.632 290.558 175.416 290.775C175.199 290.992 174.807 291.133 174.241 291.2L173.491 291.275C172.507 291.375 171.782 291.708 171.316 292.275C170.866 292.842 170.641 293.55 170.641 294.4V299.65C170.641 300.133 170.491 300.508 170.191 300.775C169.891 301.025 169.516 301.15 169.066 301.15C168.616 301.15 168.241 301.025 167.941 300.775C167.657 300.508 167.516 300.133 167.516 299.65V289.975C167.516 289.508 167.657 289.15 167.941 288.9C168.241 288.65 168.607 288.525 169.041 288.525C169.474 288.525 169.824 288.65 170.091 288.9C170.357 289.133 170.491 289.475 170.491 289.925V290.925C170.807 290.192 171.274 289.625 171.891 289.225C172.524 288.825 173.224 288.6 173.991 288.55L174.341 288.525ZM184.186 288.475C185.653 288.475 186.744 288.892 187.461 289.725C188.178 290.558 188.536 291.817 188.536 293.5V299.65C188.536 300.117 188.394 300.483 188.111 300.75C187.844 301.017 187.469 301.15 186.986 301.15C186.503 301.15 186.119 301.017 185.836 300.75C185.553 300.483 185.411 300.117 185.411 299.65V293.675C185.411 292.725 185.228 292.033 184.861 291.6C184.511 291.167 183.953 290.95 183.186 290.95C182.286 290.95 181.561 291.233 181.011 291.8C180.478 292.367 180.211 293.125 180.211 294.075V299.65C180.211 300.117 180.069 300.483 179.786 300.75C179.503 301.017 179.119 301.15 178.636 301.15C178.153 301.15 177.769 301.017 177.486 300.75C177.219 300.483 177.086 300.117 177.086 299.65V289.975C177.086 289.542 177.228 289.192 177.511 288.925C177.794 288.658 178.178 288.525 178.661 288.525C179.094 288.525 179.444 288.658 179.711 288.925C179.994 289.175 180.136 289.508 180.136 289.925V290.6C180.553 289.917 181.111 289.392 181.811 289.025C182.511 288.658 183.303 288.475 184.186 288.475ZM213.022 288.475C214.355 288.475 215.372 288.875 216.072 289.675C216.789 290.458 217.147 291.733 217.147 293.5V299.65C217.147 300.133 216.997 300.508 216.697 300.775C216.414 301.025 216.039 301.15 215.572 301.15C215.122 301.15 214.747 301.025 214.447 300.775C214.164 300.508 214.022 300.133 214.022 299.65V293.5C214.022 292.583 213.855 291.933 213.522 291.55C213.205 291.15 212.714 290.95 212.047 290.95C211.23 290.95 210.58 291.233 210.097 291.8C209.614 292.35 209.372 293.108 209.372 294.075V299.65C209.372 300.133 209.222 300.508 208.922 300.775C208.639 301.025 208.272 301.15 207.822 301.15C207.372 301.15 206.997 301.025 206.697 300.775C206.397 300.508 206.247 300.133 206.247 299.65V293.5C206.247 292.583 206.08 291.933 205.747 291.55C205.43 291.15 204.939 290.95 204.272 290.95C203.455 290.95 202.805 291.233 202.322 291.8C201.855 292.35 201.622 293.108 201.622 294.075V299.65C201.622 300.133 201.472 300.508 201.172 300.775C200.872 301.025 200.497 301.15 200.047 301.15C199.597 301.15 199.222 301.025 198.922 300.775C198.639 300.508 198.497 300.133 198.497 299.65V289.975C198.497 289.508 198.647 289.15 198.947 288.9C199.247 288.65 199.622 288.525 200.072 288.525C200.505 288.525 200.855 288.65 201.122 288.9C201.405 289.133 201.547 289.475 201.547 289.925V290.525C201.93 289.858 202.439 289.35 203.072 289C203.722 288.65 204.464 288.475 205.297 288.475C207.13 288.475 208.355 289.242 208.972 290.775C209.339 290.075 209.88 289.517 210.597 289.1C211.314 288.683 212.122 288.475 213.022 288.475ZM225.898 301.2C224.648 301.2 223.548 300.942 222.598 300.425C221.665 299.908 220.94 299.167 220.423 298.2C219.907 297.233 219.648 296.108 219.648 294.825C219.648 293.542 219.907 292.425 220.423 291.475C220.94 290.508 221.665 289.767 222.598 289.25C223.548 288.733 224.648 288.475 225.898 288.475C227.148 288.475 228.24 288.733 229.173 289.25C230.123 289.767 230.848 290.508 231.348 291.475C231.865 292.425 232.123 293.542 232.123 294.825C232.123 296.108 231.865 297.233 231.348 298.2C230.848 299.167 230.123 299.908 229.173 300.425C228.24 300.942 227.148 301.2 225.898 301.2ZM225.873 298.775C226.89 298.775 227.665 298.442 228.198 297.775C228.732 297.108 228.998 296.125 228.998 294.825C228.998 293.542 228.732 292.567 228.198 291.9C227.665 291.217 226.898 290.875 225.898 290.875C224.898 290.875 224.123 291.217 223.573 291.9C223.04 292.567 222.773 293.542 222.773 294.825C222.773 296.125 223.04 297.108 223.573 297.775C224.107 298.442 224.873 298.775 225.873 298.775ZM241.528 288.525C241.961 288.492 242.303 288.583 242.553 288.8C242.803 289.017 242.928 289.342 242.928 289.775C242.928 290.225 242.82 290.558 242.603 290.775C242.386 290.992 241.995 291.133 241.428 291.2L240.678 291.275C239.695 291.375 238.97 291.708 238.503 292.275C238.053 292.842 237.828 293.55 237.828 294.4V299.65C237.828 300.133 237.678 300.508 237.378 300.775C237.078 301.025 236.703 301.15 236.253 301.15C235.803 301.15 235.428 301.025 235.128 300.775C234.845 300.508 234.703 300.133 234.703 299.65V289.975C234.703 289.508 234.845 289.15 235.128 288.9C235.428 288.65 235.795 288.525 236.228 288.525C236.661 288.525 237.011 288.65 237.278 288.9C237.545 289.133 237.678 289.475 237.678 289.925V290.925C237.995 290.192 238.461 289.625 239.078 289.225C239.711 288.825 240.411 288.6 241.178 288.55L241.528 288.525ZM253.704 297.65C253.988 297.65 254.213 297.758 254.379 297.975C254.563 298.192 254.654 298.483 254.654 298.85C254.654 299.367 254.346 299.8 253.729 300.15C253.163 300.467 252.521 300.725 251.804 300.925C251.088 301.108 250.404 301.2 249.754 301.2C247.788 301.2 246.229 300.633 245.079 299.5C243.929 298.367 243.354 296.817 243.354 294.85C243.354 293.6 243.604 292.492 244.104 291.525C244.604 290.558 245.304 289.808 246.204 289.275C247.121 288.742 248.154 288.475 249.304 288.475C250.404 288.475 251.363 288.717 252.179 289.2C252.996 289.683 253.629 290.367 254.079 291.25C254.529 292.133 254.754 293.175 254.754 294.375C254.754 295.092 254.438 295.45 253.804 295.45H246.429C246.529 296.6 246.854 297.45 247.404 298C247.954 298.533 248.754 298.8 249.804 298.8C250.338 298.8 250.804 298.733 251.204 298.6C251.621 298.467 252.088 298.283 252.604 298.05C253.104 297.783 253.471 297.65 253.704 297.65ZM249.379 290.675C248.529 290.675 247.846 290.942 247.329 291.475C246.829 292.008 246.529 292.775 246.429 293.775H252.079C252.046 292.758 251.796 291.992 251.329 291.475C250.863 290.942 250.213 290.675 249.379 290.675Z" fill="#234CAD"/>
<path d="M147.566 211.1C147.313 211.1 147.113 211.027 146.966 210.88C146.819 210.72 146.746 210.513 146.746 210.26V197.7C146.746 197.46 146.819 197.267 146.966 197.12C147.126 196.973 147.333 196.9 147.586 196.9H152.326C153.806 196.9 154.953 197.26 155.766 197.98C156.593 198.7 157.006 199.72 157.006 201.04C157.006 202.36 156.593 203.387 155.766 204.12C154.939 204.853 153.793 205.22 152.326 205.22H148.386V210.26C148.386 210.513 148.313 210.72 148.166 210.88C148.019 211.027 147.819 211.1 147.566 211.1ZM152.166 203.86C154.313 203.86 155.386 202.92 155.386 201.04C155.386 199.187 154.313 198.26 152.166 198.26H148.386V203.86H152.166ZM166.624 208.74C166.771 208.74 166.897 208.8 167.004 208.92C167.111 209.04 167.164 209.193 167.164 209.38C167.164 209.713 166.931 210.02 166.464 210.3C165.984 210.58 165.477 210.793 164.944 210.94C164.411 211.073 163.891 211.14 163.384 211.14C161.877 211.14 160.684 210.693 159.804 209.8C158.937 208.907 158.504 207.673 158.504 206.1C158.504 205.1 158.697 204.22 159.084 203.46C159.471 202.687 160.011 202.087 160.704 201.66C161.411 201.233 162.211 201.02 163.104 201.02C164.371 201.02 165.377 201.433 166.124 202.26C166.871 203.087 167.244 204.207 167.244 205.62C167.244 205.887 167.191 206.08 167.084 206.2C166.977 206.32 166.804 206.38 166.564 206.38H160.124C160.244 208.673 161.331 209.82 163.384 209.82C163.904 209.82 164.351 209.753 164.724 209.62C165.097 209.473 165.497 209.28 165.924 209.04C166.271 208.84 166.504 208.74 166.624 208.74ZM163.124 202.28C162.271 202.28 161.584 202.547 161.064 203.08C160.557 203.613 160.257 204.367 160.164 205.34H165.824C165.797 204.353 165.551 203.6 165.084 203.08C164.617 202.547 163.964 202.28 163.124 202.28ZM174.451 201.06C175.011 201.02 175.291 201.247 175.291 201.74C175.291 201.953 175.231 202.127 175.111 202.26C174.991 202.38 174.784 202.453 174.491 202.48L173.891 202.54C172.998 202.62 172.331 202.94 171.891 203.5C171.464 204.047 171.251 204.693 171.251 205.44V210.3C171.251 210.567 171.178 210.767 171.031 210.9C170.884 211.033 170.691 211.1 170.451 211.1C170.211 211.1 170.011 211.033 169.851 210.9C169.704 210.753 169.631 210.553 169.631 210.3V201.86C169.631 201.607 169.711 201.413 169.871 201.28C170.031 201.133 170.224 201.06 170.451 201.06C170.664 201.06 170.844 201.133 170.991 201.28C171.138 201.413 171.211 201.6 171.211 201.84V202.96C171.491 202.373 171.884 201.927 172.391 201.62C172.911 201.313 173.504 201.133 174.171 201.08L174.451 201.06ZM192.678 201.02C194.838 201.02 195.918 202.307 195.918 204.88V210.3C195.918 210.553 195.845 210.753 195.698 210.9C195.551 211.033 195.358 211.1 195.118 211.1C194.878 211.1 194.678 211.033 194.518 210.9C194.371 210.753 194.298 210.553 194.298 210.3V204.92C194.298 204.027 194.138 203.38 193.818 202.98C193.498 202.58 192.998 202.38 192.318 202.38C191.505 202.38 190.865 202.653 190.398 203.2C189.931 203.747 189.698 204.487 189.698 205.42V210.3C189.698 210.553 189.618 210.753 189.458 210.9C189.311 211.033 189.118 211.1 188.878 211.1C188.638 211.1 188.445 211.033 188.298 210.9C188.151 210.753 188.078 210.553 188.078 210.3V204.92C188.078 204.027 187.918 203.38 187.598 202.98C187.278 202.58 186.771 202.38 186.078 202.38C185.278 202.38 184.638 202.653 184.158 203.2C183.691 203.747 183.458 204.487 183.458 205.42V210.3C183.458 210.553 183.385 210.753 183.238 210.9C183.091 211.033 182.898 211.1 182.658 211.1C182.418 211.1 182.218 211.033 182.058 210.9C181.911 210.753 181.838 210.553 181.838 210.3V201.86C181.838 201.62 181.911 201.427 182.058 201.28C182.218 201.133 182.418 201.06 182.658 201.06C182.885 201.06 183.071 201.133 183.218 201.28C183.365 201.413 183.438 201.6 183.438 201.84V202.8C183.731 202.227 184.138 201.787 184.658 201.48C185.178 201.173 185.778 201.02 186.458 201.02C187.978 201.02 188.971 201.66 189.438 202.94C189.718 202.353 190.145 201.887 190.718 201.54C191.291 201.193 191.945 201.02 192.678 201.02ZM202.909 211.14C201.989 211.14 201.176 210.933 200.469 210.52C199.776 210.107 199.236 209.52 198.849 208.76C198.476 207.987 198.289 207.093 198.289 206.08C198.289 205.067 198.476 204.18 198.849 203.42C199.236 202.647 199.776 202.053 200.469 201.64C201.176 201.227 201.989 201.02 202.909 201.02C203.829 201.02 204.642 201.227 205.349 201.64C206.056 202.053 206.596 202.647 206.969 203.42C207.356 204.18 207.549 205.067 207.549 206.08C207.549 207.093 207.356 207.987 206.969 208.76C206.596 209.52 206.056 210.107 205.349 210.52C204.642 210.933 203.829 211.14 202.909 211.14ZM202.909 209.8C203.869 209.8 204.602 209.487 205.109 208.86C205.629 208.22 205.889 207.293 205.889 206.08C205.889 204.893 205.629 203.98 205.109 203.34C204.589 202.687 203.856 202.36 202.909 202.36C201.962 202.36 201.229 202.687 200.709 203.34C200.189 203.98 199.929 204.893 199.929 206.08C199.929 207.28 200.182 208.2 200.689 208.84C201.209 209.48 201.949 209.8 202.909 209.8ZM214.863 201.02C217.196 201.02 218.363 202.307 218.363 204.88V210.3C218.363 210.553 218.29 210.753 218.143 210.9C218.01 211.033 217.816 211.1 217.563 211.1C217.31 211.1 217.11 211.033 216.963 210.9C216.816 210.753 216.743 210.553 216.743 210.3V204.98C216.743 204.073 216.563 203.413 216.203 203C215.856 202.587 215.296 202.38 214.523 202.38C213.63 202.38 212.916 202.653 212.383 203.2C211.85 203.747 211.583 204.487 211.583 205.42V210.3C211.583 210.553 211.51 210.753 211.363 210.9C211.23 211.033 211.036 211.1 210.783 211.1C210.53 211.1 210.33 211.033 210.183 210.9C210.036 210.753 209.963 210.553 209.963 210.3V201.86C209.963 201.62 210.036 201.427 210.183 201.28C210.33 201.133 210.53 201.06 210.783 201.06C211.023 201.06 211.21 201.133 211.343 201.28C211.49 201.427 211.563 201.613 211.563 201.84V202.86C211.883 202.26 212.33 201.807 212.903 201.5C213.476 201.18 214.13 201.02 214.863 201.02ZM225.83 209.82C226.297 209.86 226.53 210.073 226.53 210.46C226.53 210.687 226.443 210.86 226.27 210.98C226.11 211.087 225.863 211.127 225.53 211.1L224.99 211.06C223.923 210.98 223.137 210.66 222.63 210.1C222.123 209.54 221.87 208.693 221.87 207.56V202.54H220.53C220.303 202.54 220.123 202.487 219.99 202.38C219.87 202.26 219.81 202.107 219.81 201.92C219.81 201.72 219.87 201.56 219.99 201.44C220.123 201.32 220.303 201.26 220.53 201.26H221.87V199C221.87 198.747 221.943 198.553 222.09 198.42C222.237 198.273 222.437 198.2 222.69 198.2C222.93 198.2 223.123 198.273 223.27 198.42C223.417 198.553 223.49 198.747 223.49 199V201.26H225.71C225.923 201.26 226.09 201.32 226.21 201.44C226.343 201.56 226.41 201.72 226.41 201.92C226.41 202.107 226.343 202.26 226.21 202.38C226.09 202.487 225.923 202.54 225.71 202.54H223.49V207.64C223.49 208.373 223.637 208.907 223.93 209.24C224.237 209.56 224.69 209.74 225.29 209.78L225.83 209.82ZM233.047 201.02C234.194 201.02 235.06 201.347 235.647 202C236.234 202.64 236.527 203.6 236.527 204.88V210.3C236.527 210.553 236.454 210.753 236.307 210.9C236.16 211.033 235.967 211.1 235.727 211.1C235.474 211.1 235.274 211.033 235.127 210.9C234.98 210.753 234.907 210.553 234.907 210.3V204.92C234.907 204.053 234.727 203.413 234.367 203C234.02 202.587 233.46 202.38 232.687 202.38C231.794 202.38 231.08 202.653 230.547 203.2C230.014 203.747 229.747 204.487 229.747 205.42V210.3C229.747 210.553 229.674 210.753 229.527 210.9C229.394 211.033 229.2 211.1 228.947 211.1C228.694 211.1 228.494 211.033 228.347 210.9C228.2 210.753 228.127 210.553 228.127 210.3V197.58C228.127 197.353 228.2 197.167 228.347 197.02C228.507 196.873 228.707 196.8 228.947 196.8C229.2 196.8 229.394 196.873 229.527 197.02C229.674 197.153 229.747 197.34 229.747 197.58V202.82C230.067 202.233 230.514 201.787 231.087 201.48C231.66 201.173 232.314 201.02 233.047 201.02Z" fill="#234CAD"/>
<path d="M155.012 155.856C155.012 158.843 153.967 161.363 151.876 163.416C149.823 165.469 147.042 166.757 143.532 167.28V170.808C143.532 171.667 143.271 172.357 142.748 172.88C142.226 173.44 141.535 173.72 140.676 173.72C139.818 173.72 139.127 173.44 138.604 172.88C138.082 172.357 137.82 171.667 137.82 170.808V167.392C135.692 167.205 133.62 166.757 131.604 166.048C129.588 165.339 127.852 164.405 126.396 163.248C125.911 162.912 125.575 162.539 125.388 162.128C125.202 161.717 125.108 161.213 125.108 160.616C125.108 159.832 125.332 159.141 125.78 158.544C126.266 157.947 126.807 157.648 127.404 157.648C127.778 157.648 128.114 157.723 128.412 157.872C128.748 157.984 129.178 158.189 129.7 158.488C131.418 159.608 133.098 160.429 134.74 160.952C136.42 161.475 138.175 161.736 140.004 161.736C142.506 161.736 144.428 161.251 145.772 160.28C147.154 159.309 147.844 157.909 147.844 156.08C147.844 154.997 147.471 154.12 146.724 153.448C145.978 152.776 145.044 152.253 143.924 151.88C142.804 151.469 141.236 151.003 139.22 150.48C136.42 149.771 134.143 149.061 132.388 148.352C130.634 147.605 129.122 146.485 127.852 144.992C126.583 143.499 125.948 141.483 125.948 138.944C125.948 135.92 127.031 133.344 129.196 131.216C131.362 129.088 134.199 127.763 137.708 127.24V123.712C137.708 122.853 137.97 122.163 138.492 121.64C139.015 121.08 139.706 120.8 140.564 120.8C141.423 120.8 142.114 121.08 142.636 121.64C143.159 122.163 143.42 122.853 143.42 123.712V127.184C147.191 127.669 150.439 129.032 153.164 131.272C154.06 131.944 154.508 132.821 154.508 133.904C154.508 134.688 154.266 135.379 153.78 135.976C153.332 136.573 152.791 136.872 152.156 136.872C151.82 136.872 151.484 136.816 151.148 136.704C150.85 136.592 150.439 136.368 149.916 136.032C148.386 134.949 146.93 134.147 145.548 133.624C144.204 133.064 142.599 132.784 140.732 132.784C138.418 132.784 136.57 133.307 135.188 134.352C133.807 135.36 133.116 136.76 133.116 138.552C133.116 139.784 133.508 140.792 134.292 141.576C135.076 142.323 136.066 142.901 137.26 143.312C138.455 143.723 140.079 144.189 142.132 144.712C144.858 145.384 147.079 146.075 148.796 146.784C150.514 147.493 151.97 148.576 153.164 150.032C154.396 151.451 155.012 153.392 155.012 155.856ZM184.951 161.176C187.191 161.176 188.311 162.128 188.311 164.032C188.311 166.011 187.191 167 184.951 167H166.023C163.745 167 162.607 166.011 162.607 164.032C162.607 162.128 163.745 161.176 166.023 161.176H171.847V135.64L166.471 138.944C165.948 139.243 165.481 139.392 165.071 139.392C164.287 139.392 163.615 139.056 163.055 138.384C162.532 137.712 162.271 136.965 162.271 136.144C162.271 135.061 162.756 134.221 163.727 133.624L172.407 128.248C173.527 127.576 174.591 127.24 175.599 127.24C176.644 127.24 177.484 127.557 178.119 128.192C178.753 128.827 179.071 129.704 179.071 130.824V161.176H184.951ZM218.361 161.176C220.601 161.176 221.721 162.128 221.721 164.032C221.721 166.011 220.601 167 218.361 167H197.081C196.11 167 195.345 166.72 194.785 166.16C194.225 165.563 193.945 164.835 193.945 163.976C193.945 162.856 194.374 161.848 195.233 160.952L208.001 147.232C209.569 145.515 210.707 143.947 211.417 142.528C212.163 141.072 212.537 139.635 212.537 138.216C212.537 136.461 212.033 135.117 211.025 134.184C210.017 133.251 208.579 132.784 206.713 132.784C205.182 132.784 203.689 133.083 202.233 133.68C200.814 134.24 199.377 135.024 197.921 136.032C197.547 136.293 197.174 136.517 196.801 136.704C196.427 136.853 196.054 136.928 195.681 136.928C195.046 136.928 194.486 136.629 194.001 136.032C193.553 135.435 193.329 134.725 193.329 133.904C193.329 133.344 193.422 132.859 193.609 132.448C193.833 132.037 194.169 131.645 194.617 131.272C196.259 129.965 198.182 128.939 200.385 128.192C202.587 127.408 204.79 127.016 206.993 127.016C210.838 127.016 213.899 127.987 216.177 129.928C218.491 131.869 219.649 134.483 219.649 137.768C219.649 140.045 219.163 142.192 218.193 144.208C217.222 146.187 215.579 148.408 213.265 150.872L203.577 161.176H218.361ZM239.617 127.016C244.62 127.016 248.465 128.715 251.153 132.112C253.879 135.472 255.241 140.288 255.241 146.56C255.241 150.853 254.607 154.587 253.337 157.76C252.068 160.896 250.239 163.304 247.849 164.984C245.497 166.664 242.716 167.504 239.505 167.504C237.377 167.504 235.231 167.131 233.065 166.384C230.937 165.6 229.127 164.555 227.633 163.248C227.148 162.837 226.793 162.445 226.569 162.072C226.383 161.661 226.289 161.176 226.289 160.616C226.289 159.795 226.513 159.104 226.961 158.544C227.447 157.947 228.007 157.648 228.641 157.648C229.015 157.648 229.369 157.723 229.705 157.872C230.041 157.984 230.452 158.189 230.937 158.488C234.036 160.653 236.799 161.736 239.225 161.736C241.951 161.736 244.097 160.485 245.665 157.984C247.233 155.445 248.055 151.899 248.129 147.344C247.271 149.024 245.983 150.368 244.265 151.376C242.548 152.347 240.625 152.832 238.497 152.832C236.145 152.832 234.055 152.309 232.225 151.264C230.396 150.181 228.959 148.688 227.913 146.784C226.905 144.843 226.401 142.64 226.401 140.176C226.401 137.637 226.961 135.379 228.081 133.4C229.239 131.384 230.807 129.816 232.785 128.696C234.801 127.576 237.079 127.016 239.617 127.016ZM240.009 147.12C242.1 147.12 243.78 146.467 245.049 145.16C246.356 143.816 247.009 142.08 247.009 139.952C247.009 137.787 246.356 136.051 245.049 134.744C243.78 133.4 242.1 132.728 240.009 132.728C237.956 132.728 236.313 133.4 235.081 134.744C233.849 136.051 233.233 137.787 233.233 139.952C233.233 142.117 233.849 143.853 235.081 145.16C236.313 146.467 237.956 147.12 240.009 147.12Z" fill="#234CAD"/>
<path d="M137.413 78C137.097 78 136.838 77.9083 136.638 77.725C136.455 77.5417 136.363 77.3 136.363 77V61.375C136.363 61.075 136.455 60.8333 136.638 60.65C136.838 60.4667 137.097 60.375 137.413 60.375H146.763C147.063 60.375 147.297 60.45 147.463 60.6C147.63 60.75 147.713 60.9583 147.713 61.225C147.713 61.4917 147.63 61.7 147.463 61.85C147.297 62 147.063 62.075 146.763 62.075H138.388V68.2H146.263C146.563 68.2 146.797 68.275 146.963 68.425C147.13 68.575 147.213 68.7833 147.213 69.05C147.213 69.3167 147.13 69.525 146.963 69.675C146.797 69.825 146.563 69.9 146.263 69.9H138.388V76.3H146.763C147.063 76.3 147.297 76.375 147.463 76.525C147.63 76.6583 147.713 76.8667 147.713 77.15C147.713 77.4167 147.63 77.625 147.463 77.775C147.297 77.925 147.063 78 146.763 78H137.413ZM156.739 65.525C159.656 65.525 161.114 67.1333 161.114 70.35V77.125C161.114 77.4417 161.023 77.6917 160.839 77.875C160.673 78.0417 160.431 78.125 160.114 78.125C159.798 78.125 159.548 78.0417 159.364 77.875C159.181 77.6917 159.089 77.4417 159.089 77.125V70.475C159.089 69.3417 158.864 68.5167 158.414 68C157.981 67.4833 157.281 67.225 156.314 67.225C155.198 67.225 154.306 67.5667 153.639 68.25C152.973 68.9333 152.639 69.8583 152.639 71.025V77.125C152.639 77.4417 152.548 77.6917 152.364 77.875C152.198 78.0417 151.956 78.125 151.639 78.125C151.323 78.125 151.073 78.0417 150.889 77.875C150.706 77.6917 150.614 77.4417 150.614 77.125V66.575C150.614 66.275 150.706 66.0333 150.889 65.85C151.073 65.6667 151.323 65.575 151.639 65.575C151.939 65.575 152.173 65.6667 152.339 65.85C152.523 66.0333 152.614 66.2667 152.614 66.55V67.825C153.014 67.075 153.573 66.5083 154.289 66.125C155.006 65.725 155.823 65.525 156.739 65.525ZM170.448 76.525C171.032 76.575 171.323 76.8417 171.323 77.325C171.323 77.6083 171.215 77.825 170.998 77.975C170.798 78.1083 170.49 78.1583 170.073 78.125L169.398 78.075C168.065 77.975 167.082 77.575 166.448 76.875C165.815 76.175 165.498 75.1167 165.498 73.7V67.425H163.823C163.54 67.425 163.315 67.3583 163.148 67.225C162.998 67.075 162.923 66.8833 162.923 66.65C162.923 66.4 162.998 66.2 163.148 66.05C163.315 65.9 163.54 65.825 163.823 65.825H165.498V63C165.498 62.6833 165.59 62.4417 165.773 62.275C165.957 62.0917 166.207 62 166.523 62C166.823 62 167.065 62.0917 167.248 62.275C167.432 62.4417 167.523 62.6833 167.523 63V65.825H170.298C170.565 65.825 170.773 65.9 170.923 66.05C171.09 66.2 171.173 66.4 171.173 66.65C171.173 66.8833 171.09 67.075 170.923 67.225C170.773 67.3583 170.565 67.425 170.298 67.425H167.523V73.8C167.523 74.7167 167.707 75.3833 168.073 75.8C168.457 76.2 169.023 76.425 169.773 76.475L170.448 76.525ZM182.744 75.175C182.928 75.175 183.086 75.25 183.219 75.4C183.353 75.55 183.419 75.7417 183.419 75.975C183.419 76.3917 183.128 76.775 182.544 77.125C181.944 77.475 181.311 77.7417 180.644 77.925C179.978 78.0917 179.328 78.175 178.694 78.175C176.811 78.175 175.319 77.6167 174.219 76.5C173.136 75.3833 172.594 73.8417 172.594 71.875C172.594 70.625 172.836 69.525 173.319 68.575C173.803 67.6083 174.478 66.8583 175.344 66.325C176.228 65.7917 177.228 65.525 178.344 65.525C179.928 65.525 181.186 66.0417 182.119 67.075C183.053 68.1083 183.519 69.5083 183.519 71.275C183.519 71.6083 183.453 71.85 183.319 72C183.186 72.15 182.969 72.225 182.669 72.225H174.619C174.769 75.0917 176.128 76.525 178.694 76.525C179.344 76.525 179.903 76.4417 180.369 76.275C180.836 76.0917 181.336 75.85 181.869 75.55C182.303 75.3 182.594 75.175 182.744 75.175ZM178.369 67.1C177.303 67.1 176.444 67.4333 175.794 68.1C175.161 68.7667 174.786 69.7083 174.669 70.925H181.744C181.711 69.6917 181.403 68.75 180.819 68.1C180.236 67.4333 179.419 67.1 178.369 67.1ZM192.528 65.575C193.228 65.525 193.578 65.8083 193.578 66.425C193.578 66.6917 193.503 66.9083 193.353 67.075C193.203 67.225 192.945 67.3167 192.578 67.35L191.828 67.425C190.711 67.525 189.878 67.925 189.328 68.625C188.795 69.3083 188.528 70.1167 188.528 71.05V77.125C188.528 77.4583 188.436 77.7083 188.253 77.875C188.07 78.0417 187.828 78.125 187.528 78.125C187.228 78.125 186.978 78.0417 186.778 77.875C186.595 77.6917 186.503 77.4417 186.503 77.125V66.575C186.503 66.2583 186.603 66.0167 186.803 65.85C187.003 65.6667 187.245 65.575 187.528 65.575C187.795 65.575 188.02 65.6667 188.203 65.85C188.386 66.0167 188.478 66.25 188.478 66.55V67.95C188.828 67.2167 189.32 66.6583 189.953 66.275C190.603 65.8917 191.345 65.6667 192.178 65.6L192.528 65.575ZM201.441 65.525C202.508 65.525 203.45 65.7917 204.266 66.325C205.083 66.8583 205.716 67.6083 206.166 68.575C206.616 69.525 206.841 70.6333 206.841 71.9C206.841 73.1667 206.616 74.275 206.166 75.225C205.716 76.1583 205.083 76.8833 204.266 77.4C203.466 77.9167 202.525 78.175 201.441 78.175C200.491 78.175 199.658 77.9667 198.941 77.55C198.241 77.1333 197.708 76.5417 197.341 75.775V81.65C197.341 81.95 197.25 82.1833 197.066 82.35C196.9 82.5333 196.658 82.625 196.341 82.625C196.025 82.625 195.775 82.5333 195.591 82.35C195.408 82.1667 195.316 81.9333 195.316 81.65V66.575C195.316 66.275 195.408 66.0333 195.591 65.85C195.775 65.6667 196.025 65.575 196.341 65.575C196.658 65.575 196.9 65.6667 197.066 65.85C197.25 66.0333 197.341 66.275 197.341 66.575V67.925C197.708 67.1583 198.241 66.5667 198.941 66.15C199.658 65.7333 200.491 65.525 201.441 65.525ZM201.041 76.5C202.225 76.5 203.141 76.1 203.791 75.3C204.441 74.5 204.766 73.3667 204.766 71.9C204.766 70.4333 204.441 69.2917 203.791 68.475C203.141 67.6417 202.225 67.225 201.041 67.225C199.858 67.225 198.941 67.625 198.291 68.425C197.658 69.225 197.341 70.3667 197.341 71.85C197.341 73.3333 197.658 74.4833 198.291 75.3C198.941 76.1 199.858 76.5 201.041 76.5ZM215.892 65.575C216.592 65.525 216.942 65.8083 216.942 66.425C216.942 66.6917 216.867 66.9083 216.717 67.075C216.567 67.225 216.309 67.3167 215.942 67.35L215.192 67.425C214.076 67.525 213.242 67.925 212.692 68.625C212.159 69.3083 211.892 70.1167 211.892 71.05V77.125C211.892 77.4583 211.801 77.7083 211.617 77.875C211.434 78.0417 211.192 78.125 210.892 78.125C210.592 78.125 210.342 78.0417 210.142 77.875C209.959 77.6917 209.867 77.4417 209.867 77.125V66.575C209.867 66.2583 209.967 66.0167 210.167 65.85C210.367 65.6667 210.609 65.575 210.892 65.575C211.159 65.575 211.384 65.6667 211.567 65.85C211.751 66.0167 211.842 66.25 211.842 66.55V67.95C212.192 67.2167 212.684 66.6583 213.317 66.275C213.967 65.8917 214.709 65.6667 215.542 65.6L215.892 65.575ZM219.706 78.125C219.406 78.125 219.156 78.0417 218.956 77.875C218.772 77.6917 218.681 77.4417 218.681 77.125V66.575C218.681 66.2583 218.772 66.0167 218.956 65.85C219.156 65.6667 219.406 65.575 219.706 65.575C220.006 65.575 220.247 65.6667 220.431 65.85C220.614 66.0167 220.706 66.2583 220.706 66.575V77.125C220.706 77.4583 220.614 77.7083 220.431 77.875C220.247 78.0417 220.006 78.125 219.706 78.125ZM219.706 62.95C219.306 62.95 218.981 62.8333 218.731 62.6C218.481 62.3667 218.356 62.0583 218.356 61.675C218.356 61.3083 218.481 61.0083 218.731 60.775C218.981 60.5417 219.306 60.425 219.706 60.425C220.106 60.425 220.431 60.5417 220.681 60.775C220.931 61.0083 221.056 61.3083 221.056 61.675C221.056 62.0583 220.931 62.3667 220.681 62.6C220.431 62.8333 220.106 62.95 219.706 62.95ZM228.591 78.175C227.825 78.175 227.091 78.0833 226.391 77.9C225.708 77.7167 225.1 77.4583 224.566 77.125C224.266 76.925 224.05 76.7417 223.916 76.575C223.8 76.3917 223.741 76.175 223.741 75.925C223.741 75.7083 223.8 75.5333 223.916 75.4C224.05 75.25 224.216 75.175 224.416 75.175C224.616 75.175 224.908 75.3 225.291 75.55C225.791 75.85 226.283 76.0917 226.766 76.275C227.266 76.4417 227.883 76.525 228.616 76.525C229.516 76.525 230.216 76.3667 230.716 76.05C231.216 75.7333 231.466 75.275 231.466 74.675C231.466 74.3083 231.375 74.0167 231.191 73.8C231.008 73.5667 230.691 73.3667 230.241 73.2C229.791 73.0167 229.133 72.8333 228.266 72.65C226.8 72.3333 225.75 71.9083 225.116 71.375C224.483 70.8417 224.166 70.1167 224.166 69.2C224.166 68.4833 224.366 67.85 224.766 67.3C225.166 66.75 225.716 66.3167 226.416 66C227.133 65.6833 227.941 65.525 228.841 65.525C229.491 65.525 230.116 65.6167 230.716 65.8C231.333 65.9667 231.875 66.2083 232.341 66.525C232.908 66.925 233.191 67.3417 233.191 67.775C233.191 67.9917 233.125 68.175 232.991 68.325C232.858 68.475 232.7 68.55 232.516 68.55C232.316 68.55 232.016 68.4083 231.616 68.125C231.15 67.825 230.708 67.5917 230.291 67.425C229.875 67.2583 229.358 67.175 228.741 67.175C227.958 67.175 227.325 67.35 226.841 67.7C226.375 68.05 226.141 68.5167 226.141 69.1C226.141 69.4667 226.225 69.7667 226.391 70C226.575 70.2167 226.866 70.4167 227.266 70.6C227.683 70.7667 228.275 70.9333 229.041 71.1C230.175 71.35 231.05 71.625 231.666 71.925C232.3 72.225 232.75 72.5917 233.016 73.025C233.283 73.4583 233.416 74.0083 233.416 74.675C233.416 75.725 232.975 76.575 232.091 77.225C231.208 77.8583 230.041 78.175 228.591 78.175ZM245.928 75.175C246.111 75.175 246.27 75.25 246.403 75.4C246.536 75.55 246.603 75.7417 246.603 75.975C246.603 76.3917 246.311 76.775 245.728 77.125C245.128 77.475 244.495 77.7417 243.828 77.925C243.161 78.0917 242.511 78.175 241.878 78.175C239.995 78.175 238.503 77.6167 237.403 76.5C236.32 75.3833 235.778 73.8417 235.778 71.875C235.778 70.625 236.02 69.525 236.503 68.575C236.986 67.6083 237.661 66.8583 238.528 66.325C239.411 65.7917 240.411 65.525 241.528 65.525C243.111 65.525 244.37 66.0417 245.303 67.075C246.236 68.1083 246.703 69.5083 246.703 71.275C246.703 71.6083 246.636 71.85 246.503 72C246.37 72.15 246.153 72.225 245.853 72.225H237.803C237.953 75.0917 239.311 76.525 241.878 76.525C242.528 76.525 243.086 76.4417 243.553 76.275C244.02 76.0917 244.52 75.85 245.053 75.55C245.486 75.3 245.778 75.175 245.928 75.175ZM241.553 67.1C240.486 67.1 239.628 67.4333 238.978 68.1C238.345 68.7667 237.97 69.7083 237.853 70.925H244.928C244.895 69.6917 244.586 68.75 244.003 68.1C243.42 67.4333 242.603 67.1 241.553 67.1Z" fill="#234CAD"/>
</svg>
