<svg width="380" height="380" viewBox="0 0 380 380" fill="none" xmlns="http://www.w3.org/2000/svg">
<rect x="54.5" y="256.5" width="271" height="72" rx="36" stroke="#234CAD" stroke-width="3"/>
<path d="M140.615 291.475C140.998 291.475 141.307 291.592 141.54 291.825C141.773 292.042 141.89 292.333 141.89 292.7V298.075C141.89 298.842 141.79 299.383 141.59 299.7C141.39 300.017 140.982 300.275 140.365 300.475C139.698 300.708 138.923 300.892 138.04 301.025C137.157 301.158 136.307 301.225 135.49 301.225C133.673 301.225 132.098 300.867 130.765 300.15C129.432 299.433 128.407 298.4 127.69 297.05C126.99 295.683 126.64 294.058 126.64 292.175C126.64 290.325 126.99 288.725 127.69 287.375C128.407 286.008 129.415 284.967 130.715 284.25C132.015 283.517 133.548 283.15 135.315 283.15C137.665 283.15 139.59 283.783 141.09 285.05C141.29 285.233 141.432 285.417 141.515 285.6C141.615 285.783 141.665 286 141.665 286.25C141.665 286.617 141.565 286.925 141.365 287.175C141.165 287.425 140.923 287.55 140.64 287.55C140.457 287.55 140.29 287.525 140.14 287.475C139.99 287.408 139.815 287.308 139.615 287.175C138.882 286.658 138.198 286.3 137.565 286.1C136.932 285.883 136.215 285.775 135.415 285.775C133.598 285.775 132.223 286.317 131.29 287.4C130.373 288.467 129.915 290.058 129.915 292.175C129.915 296.508 131.815 298.675 135.615 298.675C136.748 298.675 137.882 298.517 139.015 298.2V293.775H136.19C135.79 293.775 135.473 293.675 135.24 293.475C135.023 293.275 134.915 292.992 134.915 292.625C134.915 292.258 135.023 291.975 135.24 291.775C135.473 291.575 135.79 291.475 136.19 291.475H140.615ZM154.925 297.65C155.208 297.65 155.433 297.758 155.6 297.975C155.783 298.192 155.875 298.483 155.875 298.85C155.875 299.367 155.567 299.8 154.95 300.15C154.383 300.467 153.742 300.725 153.025 300.925C152.308 301.108 151.625 301.2 150.975 301.2C149.008 301.2 147.45 300.633 146.3 299.5C145.15 298.367 144.575 296.817 144.575 294.85C144.575 293.6 144.825 292.492 145.325 291.525C145.825 290.558 146.525 289.808 147.425 289.275C148.342 288.742 149.375 288.475 150.525 288.475C151.625 288.475 152.583 288.717 153.4 289.2C154.217 289.683 154.85 290.367 155.3 291.25C155.75 292.133 155.975 293.175 155.975 294.375C155.975 295.092 155.658 295.45 155.025 295.45H147.65C147.75 296.6 148.075 297.45 148.625 298C149.175 298.533 149.975 298.8 151.025 298.8C151.558 298.8 152.025 298.733 152.425 298.6C152.842 298.467 153.308 298.283 153.825 298.05C154.325 297.783 154.692 297.65 154.925 297.65ZM150.6 290.675C149.75 290.675 149.067 290.942 148.55 291.475C148.05 292.008 147.75 292.775 147.65 293.775H153.3C153.267 292.758 153.017 291.992 152.55 291.475C152.083 290.942 151.433 290.675 150.6 290.675ZM164.71 298.825C165.544 298.875 165.96 299.25 165.96 299.95C165.96 300.35 165.794 300.658 165.46 300.875C165.144 301.075 164.685 301.158 164.085 301.125L163.41 301.075C160.61 300.875 159.21 299.375 159.21 296.575V291.125H157.96C157.51 291.125 157.16 291.025 156.91 290.825C156.677 290.625 156.56 290.333 156.56 289.95C156.56 289.567 156.677 289.275 156.91 289.075C157.16 288.875 157.51 288.775 157.96 288.775H159.21V286.475C159.21 286.025 159.352 285.667 159.635 285.4C159.919 285.133 160.302 285 160.785 285C161.252 285 161.627 285.133 161.91 285.4C162.194 285.667 162.335 286.025 162.335 286.475V288.775H164.46C164.91 288.775 165.252 288.875 165.485 289.075C165.735 289.275 165.86 289.567 165.86 289.95C165.86 290.333 165.735 290.625 165.485 290.825C165.252 291.025 164.91 291.125 164.46 291.125H162.335V296.8C162.335 298.033 162.902 298.692 164.035 298.775L164.71 298.825ZM178.801 301.2C176.984 301.2 175.518 300.842 174.401 300.125C173.868 299.808 173.601 299.358 173.601 298.775C173.601 298.442 173.693 298.175 173.876 297.975C174.059 297.758 174.284 297.65 174.551 297.65C174.834 297.65 175.226 297.783 175.726 298.05C176.259 298.3 176.743 298.492 177.176 298.625C177.626 298.758 178.193 298.825 178.876 298.825C179.576 298.825 180.118 298.708 180.501 298.475C180.901 298.242 181.101 297.917 181.101 297.5C181.101 297.217 181.018 296.992 180.851 296.825C180.701 296.658 180.418 296.508 180.001 296.375C179.601 296.225 178.984 296.058 178.151 295.875C176.668 295.575 175.601 295.15 174.951 294.6C174.318 294.05 174.001 293.292 174.001 292.325C174.001 291.592 174.218 290.933 174.651 290.35C175.084 289.75 175.676 289.292 176.426 288.975C177.193 288.642 178.059 288.475 179.026 288.475C179.726 288.475 180.401 288.567 181.051 288.75C181.701 288.917 182.284 289.167 182.801 289.5C183.334 289.833 183.601 290.275 183.601 290.825C183.601 291.158 183.509 291.442 183.326 291.675C183.143 291.892 182.918 292 182.651 292C182.468 292 182.284 291.967 182.101 291.9C181.934 291.817 181.718 291.7 181.451 291.55C180.968 291.3 180.551 291.117 180.201 291C179.851 290.867 179.418 290.8 178.901 290.8C178.284 290.8 177.793 290.925 177.426 291.175C177.076 291.425 176.901 291.767 176.901 292.2C176.901 292.617 177.084 292.933 177.451 293.15C177.818 293.367 178.526 293.583 179.576 293.8C180.693 294.033 181.568 294.3 182.201 294.6C182.834 294.9 183.284 295.275 183.551 295.725C183.834 296.175 183.976 296.75 183.976 297.45C183.976 298.583 183.501 299.492 182.551 300.175C181.618 300.858 180.368 301.2 178.801 301.2ZM192.738 298.825C193.571 298.875 193.988 299.25 193.988 299.95C193.988 300.35 193.821 300.658 193.488 300.875C193.171 301.075 192.713 301.158 192.113 301.125L191.438 301.075C188.638 300.875 187.238 299.375 187.238 296.575V291.125H185.988C185.538 291.125 185.188 291.025 184.938 290.825C184.704 290.625 184.588 290.333 184.588 289.95C184.588 289.567 184.704 289.275 184.938 289.075C185.188 288.875 185.538 288.775 185.988 288.775H187.238V286.475C187.238 286.025 187.379 285.667 187.663 285.4C187.946 285.133 188.329 285 188.813 285C189.279 285 189.654 285.133 189.938 285.4C190.221 285.667 190.363 286.025 190.363 286.475V288.775H192.488C192.938 288.775 193.279 288.875 193.513 289.075C193.763 289.275 193.888 289.567 193.888 289.95C193.888 290.333 193.763 290.625 193.513 290.825C193.279 291.025 192.938 291.125 192.488 291.125H190.363V296.8C190.363 298.033 190.929 298.692 192.063 298.775L192.738 298.825ZM200.916 288.475C202.616 288.475 203.875 288.9 204.691 289.75C205.525 290.583 205.941 291.858 205.941 293.575V299.675C205.941 300.125 205.808 300.483 205.541 300.75C205.275 301 204.908 301.125 204.441 301.125C204.008 301.125 203.65 300.992 203.366 300.725C203.1 300.458 202.966 300.108 202.966 299.675V299.125C202.683 299.775 202.233 300.283 201.616 300.65C201.016 301.017 200.316 301.2 199.516 301.2C198.7 301.2 197.958 301.033 197.291 300.7C196.625 300.367 196.1 299.908 195.716 299.325C195.333 298.742 195.141 298.092 195.141 297.375C195.141 296.475 195.366 295.767 195.816 295.25C196.283 294.733 197.033 294.358 198.066 294.125C199.1 293.892 200.525 293.775 202.341 293.775H202.966V293.2C202.966 292.383 202.791 291.792 202.441 291.425C202.091 291.042 201.525 290.85 200.741 290.85C200.258 290.85 199.766 290.925 199.266 291.075C198.766 291.208 198.175 291.408 197.491 291.675C197.058 291.892 196.741 292 196.541 292C196.241 292 195.991 291.892 195.791 291.675C195.608 291.458 195.516 291.175 195.516 290.825C195.516 290.542 195.583 290.3 195.716 290.1C195.866 289.883 196.108 289.683 196.441 289.5C197.025 289.183 197.716 288.933 198.516 288.75C199.333 288.567 200.133 288.475 200.916 288.475ZM200.141 298.95C200.975 298.95 201.65 298.675 202.166 298.125C202.7 297.558 202.966 296.833 202.966 295.95V295.425H202.516C201.4 295.425 200.533 295.475 199.916 295.575C199.3 295.675 198.858 295.85 198.591 296.1C198.325 296.35 198.191 296.692 198.191 297.125C198.191 297.658 198.375 298.1 198.741 298.45C199.125 298.783 199.591 298.95 200.141 298.95ZM215.942 288.525C216.376 288.492 216.717 288.583 216.967 288.8C217.217 289.017 217.342 289.342 217.342 289.775C217.342 290.225 217.234 290.558 217.017 290.775C216.801 290.992 216.409 291.133 215.842 291.2L215.092 291.275C214.109 291.375 213.384 291.708 212.917 292.275C212.467 292.842 212.242 293.55 212.242 294.4V299.65C212.242 300.133 212.092 300.508 211.792 300.775C211.492 301.025 211.117 301.15 210.667 301.15C210.217 301.15 209.842 301.025 209.542 300.775C209.259 300.508 209.117 300.133 209.117 299.65V289.975C209.117 289.508 209.259 289.15 209.542 288.9C209.842 288.65 210.209 288.525 210.642 288.525C211.076 288.525 211.426 288.65 211.692 288.9C211.959 289.133 212.092 289.475 212.092 289.925V290.925C212.409 290.192 212.876 289.625 213.492 289.225C214.126 288.825 214.826 288.6 215.592 288.55L215.942 288.525ZM226.161 298.825C226.994 298.875 227.411 299.25 227.411 299.95C227.411 300.35 227.244 300.658 226.911 300.875C226.594 301.075 226.136 301.158 225.536 301.125L224.861 301.075C222.061 300.875 220.661 299.375 220.661 296.575V291.125H219.411C218.961 291.125 218.611 291.025 218.361 290.825C218.127 290.625 218.011 290.333 218.011 289.95C218.011 289.567 218.127 289.275 218.361 289.075C218.611 288.875 218.961 288.775 219.411 288.775H220.661V286.475C220.661 286.025 220.802 285.667 221.086 285.4C221.369 285.133 221.752 285 222.236 285C222.702 285 223.077 285.133 223.361 285.4C223.644 285.667 223.786 286.025 223.786 286.475V288.775H225.911C226.361 288.775 226.702 288.875 226.936 289.075C227.186 289.275 227.311 289.567 227.311 289.95C227.311 290.333 227.186 290.625 226.936 290.825C226.702 291.025 226.361 291.125 225.911 291.125H223.786V296.8C223.786 298.033 224.352 298.692 225.486 298.775L226.161 298.825ZM238.714 297.65C238.997 297.65 239.222 297.758 239.389 297.975C239.572 298.192 239.664 298.483 239.664 298.85C239.664 299.367 239.356 299.8 238.739 300.15C238.172 300.467 237.531 300.725 236.814 300.925C236.097 301.108 235.414 301.2 234.764 301.2C232.797 301.2 231.239 300.633 230.089 299.5C228.939 298.367 228.364 296.817 228.364 294.85C228.364 293.6 228.614 292.492 229.114 291.525C229.614 290.558 230.314 289.808 231.214 289.275C232.131 288.742 233.164 288.475 234.314 288.475C235.414 288.475 236.372 288.717 237.189 289.2C238.006 289.683 238.639 290.367 239.089 291.25C239.539 292.133 239.764 293.175 239.764 294.375C239.764 295.092 239.447 295.45 238.814 295.45H231.439C231.539 296.6 231.864 297.45 232.414 298C232.964 298.533 233.764 298.8 234.814 298.8C235.347 298.8 235.814 298.733 236.214 298.6C236.631 298.467 237.097 298.283 237.614 298.05C238.114 297.783 238.481 297.65 238.714 297.65ZM234.389 290.675C233.539 290.675 232.856 290.942 232.339 291.475C231.839 292.008 231.539 292.775 231.439 293.775H237.089C237.056 292.758 236.806 291.992 236.339 291.475C235.872 290.942 235.222 290.675 234.389 290.675ZM252.52 283.25C252.987 283.25 253.37 283.383 253.67 283.65C253.97 283.917 254.12 284.267 254.12 284.7V299.65C254.12 300.1 253.979 300.458 253.695 300.725C253.412 300.992 253.037 301.125 252.57 301.125C252.104 301.125 251.729 300.992 251.445 300.725C251.162 300.458 251.02 300.1 251.02 299.65V299.025C250.654 299.708 250.12 300.242 249.42 300.625C248.737 301.008 247.954 301.2 247.07 301.2C246.02 301.2 245.079 300.933 244.245 300.4C243.429 299.867 242.787 299.117 242.32 298.15C241.87 297.167 241.645 296.042 241.645 294.775C241.645 293.508 241.87 292.4 242.32 291.45C242.787 290.5 243.429 289.767 244.245 289.25C245.062 288.733 246.004 288.475 247.07 288.475C247.954 288.475 248.737 288.658 249.42 289.025C250.104 289.392 250.629 289.908 250.995 290.575V284.65C250.995 284.233 251.129 283.9 251.395 283.65C251.679 283.383 252.054 283.25 252.52 283.25ZM247.895 298.775C248.895 298.775 249.662 298.433 250.195 297.75C250.745 297.067 251.02 296.092 251.02 294.825C251.02 293.558 250.745 292.592 250.195 291.925C249.662 291.242 248.904 290.9 247.92 290.9C246.92 290.9 246.145 291.233 245.595 291.9C245.045 292.567 244.77 293.525 244.77 294.775C244.77 296.042 245.045 297.025 245.595 297.725C246.145 298.425 246.912 298.775 247.895 298.775Z" fill="#234CAD"/>
<path d="M147.566 211.1C147.313 211.1 147.113 211.027 146.966 210.88C146.819 210.72 146.746 210.513 146.746 210.26V197.7C146.746 197.46 146.819 197.267 146.966 197.12C147.126 196.973 147.333 196.9 147.586 196.9H152.326C153.806 196.9 154.953 197.26 155.766 197.98C156.593 198.7 157.006 199.72 157.006 201.04C157.006 202.36 156.593 203.387 155.766 204.12C154.939 204.853 153.793 205.22 152.326 205.22H148.386V210.26C148.386 210.513 148.313 210.72 148.166 210.88C148.019 211.027 147.819 211.1 147.566 211.1ZM152.166 203.86C154.313 203.86 155.386 202.92 155.386 201.04C155.386 199.187 154.313 198.26 152.166 198.26H148.386V203.86H152.166ZM166.624 208.74C166.771 208.74 166.897 208.8 167.004 208.92C167.111 209.04 167.164 209.193 167.164 209.38C167.164 209.713 166.931 210.02 166.464 210.3C165.984 210.58 165.477 210.793 164.944 210.94C164.411 211.073 163.891 211.14 163.384 211.14C161.877 211.14 160.684 210.693 159.804 209.8C158.937 208.907 158.504 207.673 158.504 206.1C158.504 205.1 158.697 204.22 159.084 203.46C159.471 202.687 160.011 202.087 160.704 201.66C161.411 201.233 162.211 201.02 163.104 201.02C164.371 201.02 165.377 201.433 166.124 202.26C166.871 203.087 167.244 204.207 167.244 205.62C167.244 205.887 167.191 206.08 167.084 206.2C166.977 206.32 166.804 206.38 166.564 206.38H160.124C160.244 208.673 161.331 209.82 163.384 209.82C163.904 209.82 164.351 209.753 164.724 209.62C165.097 209.473 165.497 209.28 165.924 209.04C166.271 208.84 166.504 208.74 166.624 208.74ZM163.124 202.28C162.271 202.28 161.584 202.547 161.064 203.08C160.557 203.613 160.257 204.367 160.164 205.34H165.824C165.797 204.353 165.551 203.6 165.084 203.08C164.617 202.547 163.964 202.28 163.124 202.28ZM174.451 201.06C175.011 201.02 175.291 201.247 175.291 201.74C175.291 201.953 175.231 202.127 175.111 202.26C174.991 202.38 174.784 202.453 174.491 202.48L173.891 202.54C172.998 202.62 172.331 202.94 171.891 203.5C171.464 204.047 171.251 204.693 171.251 205.44V210.3C171.251 210.567 171.178 210.767 171.031 210.9C170.884 211.033 170.691 211.1 170.451 211.1C170.211 211.1 170.011 211.033 169.851 210.9C169.704 210.753 169.631 210.553 169.631 210.3V201.86C169.631 201.607 169.711 201.413 169.871 201.28C170.031 201.133 170.224 201.06 170.451 201.06C170.664 201.06 170.844 201.133 170.991 201.28C171.138 201.413 171.211 201.6 171.211 201.84V202.96C171.491 202.373 171.884 201.927 172.391 201.62C172.911 201.313 173.504 201.133 174.171 201.08L174.451 201.06ZM192.678 201.02C194.838 201.02 195.918 202.307 195.918 204.88V210.3C195.918 210.553 195.845 210.753 195.698 210.9C195.551 211.033 195.358 211.1 195.118 211.1C194.878 211.1 194.678 211.033 194.518 210.9C194.371 210.753 194.298 210.553 194.298 210.3V204.92C194.298 204.027 194.138 203.38 193.818 202.98C193.498 202.58 192.998 202.38 192.318 202.38C191.505 202.38 190.865 202.653 190.398 203.2C189.931 203.747 189.698 204.487 189.698 205.42V210.3C189.698 210.553 189.618 210.753 189.458 210.9C189.311 211.033 189.118 211.1 188.878 211.1C188.638 211.1 188.445 211.033 188.298 210.9C188.151 210.753 188.078 210.553 188.078 210.3V204.92C188.078 204.027 187.918 203.38 187.598 202.98C187.278 202.58 186.771 202.38 186.078 202.38C185.278 202.38 184.638 202.653 184.158 203.2C183.691 203.747 183.458 204.487 183.458 205.42V210.3C183.458 210.553 183.385 210.753 183.238 210.9C183.091 211.033 182.898 211.1 182.658 211.1C182.418 211.1 182.218 211.033 182.058 210.9C181.911 210.753 181.838 210.553 181.838 210.3V201.86C181.838 201.62 181.911 201.427 182.058 201.28C182.218 201.133 182.418 201.06 182.658 201.06C182.885 201.06 183.071 201.133 183.218 201.28C183.365 201.413 183.438 201.6 183.438 201.84V202.8C183.731 202.227 184.138 201.787 184.658 201.48C185.178 201.173 185.778 201.02 186.458 201.02C187.978 201.02 188.971 201.66 189.438 202.94C189.718 202.353 190.145 201.887 190.718 201.54C191.291 201.193 191.945 201.02 192.678 201.02ZM202.909 211.14C201.989 211.14 201.176 210.933 200.469 210.52C199.776 210.107 199.236 209.52 198.849 208.76C198.476 207.987 198.289 207.093 198.289 206.08C198.289 205.067 198.476 204.18 198.849 203.42C199.236 202.647 199.776 202.053 200.469 201.64C201.176 201.227 201.989 201.02 202.909 201.02C203.829 201.02 204.642 201.227 205.349 201.64C206.056 202.053 206.596 202.647 206.969 203.42C207.356 204.18 207.549 205.067 207.549 206.08C207.549 207.093 207.356 207.987 206.969 208.76C206.596 209.52 206.056 210.107 205.349 210.52C204.642 210.933 203.829 211.14 202.909 211.14ZM202.909 209.8C203.869 209.8 204.602 209.487 205.109 208.86C205.629 208.22 205.889 207.293 205.889 206.08C205.889 204.893 205.629 203.98 205.109 203.34C204.589 202.687 203.856 202.36 202.909 202.36C201.962 202.36 201.229 202.687 200.709 203.34C200.189 203.98 199.929 204.893 199.929 206.08C199.929 207.28 200.182 208.2 200.689 208.84C201.209 209.48 201.949 209.8 202.909 209.8ZM214.863 201.02C217.196 201.02 218.363 202.307 218.363 204.88V210.3C218.363 210.553 218.29 210.753 218.143 210.9C218.01 211.033 217.816 211.1 217.563 211.1C217.31 211.1 217.11 211.033 216.963 210.9C216.816 210.753 216.743 210.553 216.743 210.3V204.98C216.743 204.073 216.563 203.413 216.203 203C215.856 202.587 215.296 202.38 214.523 202.38C213.63 202.38 212.916 202.653 212.383 203.2C211.85 203.747 211.583 204.487 211.583 205.42V210.3C211.583 210.553 211.51 210.753 211.363 210.9C211.23 211.033 211.036 211.1 210.783 211.1C210.53 211.1 210.33 211.033 210.183 210.9C210.036 210.753 209.963 210.553 209.963 210.3V201.86C209.963 201.62 210.036 201.427 210.183 201.28C210.33 201.133 210.53 201.06 210.783 201.06C211.023 201.06 211.21 201.133 211.343 201.28C211.49 201.427 211.563 201.613 211.563 201.84V202.86C211.883 202.26 212.33 201.807 212.903 201.5C213.476 201.18 214.13 201.02 214.863 201.02ZM225.83 209.82C226.297 209.86 226.53 210.073 226.53 210.46C226.53 210.687 226.443 210.86 226.27 210.98C226.11 211.087 225.863 211.127 225.53 211.1L224.99 211.06C223.923 210.98 223.137 210.66 222.63 210.1C222.123 209.54 221.87 208.693 221.87 207.56V202.54H220.53C220.303 202.54 220.123 202.487 219.99 202.38C219.87 202.26 219.81 202.107 219.81 201.92C219.81 201.72 219.87 201.56 219.99 201.44C220.123 201.32 220.303 201.26 220.53 201.26H221.87V199C221.87 198.747 221.943 198.553 222.09 198.42C222.237 198.273 222.437 198.2 222.69 198.2C222.93 198.2 223.123 198.273 223.27 198.42C223.417 198.553 223.49 198.747 223.49 199V201.26H225.71C225.923 201.26 226.09 201.32 226.21 201.44C226.343 201.56 226.41 201.72 226.41 201.92C226.41 202.107 226.343 202.26 226.21 202.38C226.09 202.487 225.923 202.54 225.71 202.54H223.49V207.64C223.49 208.373 223.637 208.907 223.93 209.24C224.237 209.56 224.69 209.74 225.29 209.78L225.83 209.82ZM233.047 201.02C234.194 201.02 235.06 201.347 235.647 202C236.234 202.64 236.527 203.6 236.527 204.88V210.3C236.527 210.553 236.454 210.753 236.307 210.9C236.16 211.033 235.967 211.1 235.727 211.1C235.474 211.1 235.274 211.033 235.127 210.9C234.98 210.753 234.907 210.553 234.907 210.3V204.92C234.907 204.053 234.727 203.413 234.367 203C234.02 202.587 233.46 202.38 232.687 202.38C231.794 202.38 231.08 202.653 230.547 203.2C230.014 203.747 229.747 204.487 229.747 205.42V210.3C229.747 210.553 229.674 210.753 229.527 210.9C229.394 211.033 229.2 211.1 228.947 211.1C228.694 211.1 228.494 211.033 228.347 210.9C228.2 210.753 228.127 210.553 228.127 210.3V197.58C228.127 197.353 228.2 197.167 228.347 197.02C228.507 196.873 228.707 196.8 228.947 196.8C229.2 196.8 229.394 196.873 229.527 197.02C229.674 197.153 229.747 197.34 229.747 197.58V202.82C230.067 202.233 230.514 201.787 231.087 201.48C231.66 201.173 232.314 201.02 233.047 201.02Z" fill="#234CAD"/>
<path d="M171.801 155.856C171.801 158.843 170.756 161.363 168.665 163.416C166.612 165.469 163.831 166.757 160.321 167.28V170.808C160.321 171.667 160.06 172.357 159.537 172.88C159.015 173.44 158.324 173.72 157.465 173.72C156.607 173.72 155.916 173.44 155.393 172.88C154.871 172.357 154.609 171.667 154.609 170.808V167.392C152.481 167.205 150.409 166.757 148.393 166.048C146.377 165.339 144.641 164.405 143.185 163.248C142.7 162.912 142.364 162.539 142.177 162.128C141.991 161.717 141.897 161.213 141.897 160.616C141.897 159.832 142.121 159.141 142.569 158.544C143.055 157.947 143.596 157.648 144.193 157.648C144.567 157.648 144.903 157.723 145.201 157.872C145.537 157.984 145.967 158.189 146.489 158.488C148.207 159.608 149.887 160.429 151.529 160.952C153.209 161.475 154.964 161.736 156.793 161.736C159.295 161.736 161.217 161.251 162.561 160.28C163.943 159.309 164.633 157.909 164.633 156.08C164.633 154.997 164.26 154.12 163.513 153.448C162.767 152.776 161.833 152.253 160.713 151.88C159.593 151.469 158.025 151.003 156.009 150.48C153.209 149.771 150.932 149.061 149.177 148.352C147.423 147.605 145.911 146.485 144.641 144.992C143.372 143.499 142.737 141.483 142.737 138.944C142.737 135.92 143.82 133.344 145.985 131.216C148.151 129.088 150.988 127.763 154.497 127.24V123.712C154.497 122.853 154.759 122.163 155.281 121.64C155.804 121.08 156.495 120.8 157.353 120.8C158.212 120.8 158.903 121.08 159.425 121.64C159.948 122.163 160.209 122.853 160.209 123.712V127.184C163.98 127.669 167.228 129.032 169.953 131.272C170.849 131.944 171.297 132.821 171.297 133.904C171.297 134.688 171.055 135.379 170.569 135.976C170.121 136.573 169.58 136.872 168.945 136.872C168.609 136.872 168.273 136.816 167.937 136.704C167.639 136.592 167.228 136.368 166.705 136.032C165.175 134.949 163.719 134.147 162.337 133.624C160.993 133.064 159.388 132.784 157.521 132.784C155.207 132.784 153.359 133.307 151.977 134.352C150.596 135.36 149.905 136.76 149.905 138.552C149.905 139.784 150.297 140.792 151.081 141.576C151.865 142.323 152.855 142.901 154.049 143.312C155.244 143.723 156.868 144.189 158.921 144.712C161.647 145.384 163.868 146.075 165.585 146.784C167.303 147.493 168.759 148.576 169.953 150.032C171.185 151.451 171.801 153.392 171.801 155.856ZM201.572 161.176C203.812 161.176 204.932 162.128 204.932 164.032C204.932 166.011 203.812 167 201.572 167H180.292C179.321 167 178.556 166.72 177.996 166.16C177.436 165.563 177.156 164.835 177.156 163.976C177.156 162.856 177.585 161.848 178.444 160.952L191.212 147.232C192.78 145.515 193.918 143.947 194.628 142.528C195.374 141.072 195.748 139.635 195.748 138.216C195.748 136.461 195.244 135.117 194.236 134.184C193.228 133.251 191.79 132.784 189.924 132.784C188.393 132.784 186.9 133.083 185.444 133.68C184.025 134.24 182.588 135.024 181.132 136.032C180.758 136.293 180.385 136.517 180.012 136.704C179.638 136.853 179.265 136.928 178.892 136.928C178.257 136.928 177.697 136.629 177.212 136.032C176.764 135.435 176.54 134.725 176.54 133.904C176.54 133.344 176.633 132.859 176.82 132.448C177.044 132.037 177.38 131.645 177.828 131.272C179.47 129.965 181.393 128.939 183.596 128.192C185.798 127.408 188.001 127.016 190.204 127.016C194.049 127.016 197.11 127.987 199.388 129.928C201.702 131.869 202.86 134.483 202.86 137.768C202.86 140.045 202.374 142.192 201.404 144.208C200.433 146.187 198.79 148.408 196.476 150.872L186.788 161.176H201.572ZM222.828 127.016C227.831 127.016 231.676 128.715 234.364 132.112C237.09 135.472 238.452 140.288 238.452 146.56C238.452 150.853 237.818 154.587 236.548 157.76C235.279 160.896 233.45 163.304 231.06 164.984C228.708 166.664 225.927 167.504 222.716 167.504C220.588 167.504 218.442 167.131 216.276 166.384C214.148 165.6 212.338 164.555 210.844 163.248C210.359 162.837 210.004 162.445 209.78 162.072C209.594 161.661 209.5 161.176 209.5 160.616C209.5 159.795 209.724 159.104 210.172 158.544C210.658 157.947 211.218 157.648 211.852 157.648C212.226 157.648 212.58 157.723 212.916 157.872C213.252 157.984 213.663 158.189 214.148 158.488C217.247 160.653 220.01 161.736 222.436 161.736C225.162 161.736 227.308 160.485 228.876 157.984C230.444 155.445 231.266 151.899 231.34 147.344C230.482 149.024 229.194 150.368 227.476 151.376C225.759 152.347 223.836 152.832 221.708 152.832C219.356 152.832 217.266 152.309 215.436 151.264C213.607 150.181 212.17 148.688 211.124 146.784C210.116 144.843 209.612 142.64 209.612 140.176C209.612 137.637 210.172 135.379 211.292 133.4C212.45 131.384 214.018 129.816 215.996 128.696C218.012 127.576 220.29 127.016 222.828 127.016ZM223.22 147.12C225.311 147.12 226.991 146.467 228.26 145.16C229.567 143.816 230.22 142.08 230.22 139.952C230.22 137.787 229.567 136.051 228.26 134.744C226.991 133.4 225.311 132.728 223.22 132.728C221.167 132.728 219.524 133.4 218.292 134.744C217.06 136.051 216.444 137.787 216.444 139.952C216.444 142.117 217.06 143.853 218.292 145.16C219.524 146.467 221.167 147.12 223.22 147.12Z" fill="#234CAD"/>
<path d="M143.688 78.125C143.371 78.125 143.121 78.0333 142.938 77.85C142.754 77.65 142.663 77.3917 142.663 77.075V61.375C142.663 61.075 142.754 60.8333 142.938 60.65C143.138 60.4667 143.396 60.375 143.713 60.375H149.638C151.488 60.375 152.921 60.825 153.938 61.725C154.971 62.625 155.488 63.9 155.488 65.55C155.488 67.2 154.971 68.4833 153.938 69.4C152.904 70.3167 151.471 70.775 149.638 70.775H144.713V77.075C144.713 77.3917 144.621 77.65 144.438 77.85C144.254 78.0333 144.004 78.125 143.688 78.125ZM149.438 69.075C152.121 69.075 153.463 67.9 153.463 65.55C153.463 63.2333 152.121 62.075 149.438 62.075H144.713V69.075H149.438ZM164.257 65.575C164.957 65.525 165.307 65.8083 165.307 66.425C165.307 66.6917 165.232 66.9083 165.082 67.075C164.932 67.225 164.674 67.3167 164.307 67.35L163.557 67.425C162.44 67.525 161.607 67.925 161.057 68.625C160.524 69.3083 160.257 70.1167 160.257 71.05V77.125C160.257 77.4583 160.165 77.7083 159.982 77.875C159.799 78.0417 159.557 78.125 159.257 78.125C158.957 78.125 158.707 78.0417 158.507 77.875C158.324 77.6917 158.232 77.4417 158.232 77.125V66.575C158.232 66.2583 158.332 66.0167 158.532 65.85C158.732 65.6667 158.974 65.575 159.257 65.575C159.524 65.575 159.749 65.6667 159.932 65.85C160.115 66.0167 160.207 66.25 160.207 66.55V67.95C160.557 67.2167 161.049 66.6583 161.682 66.275C162.332 65.8917 163.074 65.6667 163.907 65.6L164.257 65.575ZM176.226 75.175C176.41 75.175 176.568 75.25 176.701 75.4C176.835 75.55 176.901 75.7417 176.901 75.975C176.901 76.3917 176.61 76.775 176.026 77.125C175.426 77.475 174.793 77.7417 174.126 77.925C173.46 78.0917 172.81 78.175 172.176 78.175C170.293 78.175 168.801 77.6167 167.701 76.5C166.618 75.3833 166.076 73.8417 166.076 71.875C166.076 70.625 166.318 69.525 166.801 68.575C167.285 67.6083 167.96 66.8583 168.826 66.325C169.71 65.7917 170.71 65.525 171.826 65.525C173.41 65.525 174.668 66.0417 175.601 67.075C176.535 68.1083 177.001 69.5083 177.001 71.275C177.001 71.6083 176.935 71.85 176.801 72C176.668 72.15 176.451 72.225 176.151 72.225H168.101C168.251 75.0917 169.61 76.525 172.176 76.525C172.826 76.525 173.385 76.4417 173.851 76.275C174.318 76.0917 174.818 75.85 175.351 75.55C175.785 75.3 176.076 75.175 176.226 75.175ZM171.851 67.1C170.785 67.1 169.926 67.4333 169.276 68.1C168.643 68.7667 168.268 69.7083 168.151 70.925H175.226C175.193 69.6917 174.885 68.75 174.301 68.1C173.718 67.4333 172.901 67.1 171.851 67.1ZM193.535 65.525C196.235 65.525 197.585 67.1333 197.585 70.35V77.125C197.585 77.4417 197.493 77.6917 197.31 77.875C197.127 78.0417 196.885 78.125 196.585 78.125C196.285 78.125 196.035 78.0417 195.835 77.875C195.652 77.6917 195.56 77.4417 195.56 77.125V70.4C195.56 69.2833 195.36 68.475 194.96 67.975C194.56 67.475 193.935 67.225 193.085 67.225C192.068 67.225 191.268 67.5667 190.685 68.25C190.102 68.9333 189.81 69.8583 189.81 71.025V77.125C189.81 77.4417 189.71 77.6917 189.51 77.875C189.327 78.0417 189.085 78.125 188.785 78.125C188.485 78.125 188.243 78.0417 188.06 77.875C187.877 77.6917 187.785 77.4417 187.785 77.125V70.4C187.785 69.2833 187.585 68.475 187.185 67.975C186.785 67.475 186.152 67.225 185.285 67.225C184.285 67.225 183.485 67.5667 182.885 68.25C182.302 68.9333 182.01 69.8583 182.01 71.025V77.125C182.01 77.4417 181.918 77.6917 181.735 77.875C181.552 78.0417 181.31 78.125 181.01 78.125C180.71 78.125 180.46 78.0417 180.26 77.875C180.077 77.6917 179.985 77.4417 179.985 77.125V66.575C179.985 66.275 180.077 66.0333 180.26 65.85C180.46 65.6667 180.71 65.575 181.01 65.575C181.293 65.575 181.527 65.6667 181.71 65.85C181.893 66.0167 181.985 66.25 181.985 66.55V67.75C182.352 67.0333 182.86 66.4833 183.51 66.1C184.16 65.7167 184.91 65.525 185.76 65.525C187.66 65.525 188.902 66.325 189.485 67.925C189.835 67.1917 190.368 66.6083 191.085 66.175C191.802 65.7417 192.618 65.525 193.535 65.525ZM202.299 78.125C201.999 78.125 201.749 78.0417 201.549 77.875C201.366 77.6917 201.274 77.4417 201.274 77.125V66.575C201.274 66.2583 201.366 66.0167 201.549 65.85C201.749 65.6667 201.999 65.575 202.299 65.575C202.599 65.575 202.841 65.6667 203.024 65.85C203.207 66.0167 203.299 66.2583 203.299 66.575V77.125C203.299 77.4583 203.207 77.7083 203.024 77.875C202.841 78.0417 202.599 78.125 202.299 78.125ZM202.299 62.95C201.899 62.95 201.574 62.8333 201.324 62.6C201.074 62.3667 200.949 62.0583 200.949 61.675C200.949 61.3083 201.074 61.0083 201.324 60.775C201.574 60.5417 201.899 60.425 202.299 60.425C202.699 60.425 203.024 60.5417 203.274 60.775C203.524 61.0083 203.649 61.3083 203.649 61.675C203.649 62.0583 203.524 62.3667 203.274 62.6C203.024 62.8333 202.699 62.95 202.299 62.95ZM216.334 65.575C216.651 65.575 216.893 65.6667 217.059 65.85C217.243 66.0333 217.334 66.275 217.334 66.575V77.15C217.334 77.4333 217.243 77.6667 217.059 77.85C216.893 78.0333 216.651 78.125 216.334 78.125C216.034 78.125 215.793 78.0417 215.609 77.875C215.443 77.6917 215.359 77.4583 215.359 77.175V75.925C214.976 76.6583 214.434 77.2167 213.734 77.6C213.051 77.9833 212.276 78.175 211.409 78.175C209.959 78.175 208.868 77.775 208.134 76.975C207.401 76.1583 207.034 74.9583 207.034 73.375V66.575C207.034 66.275 207.126 66.0333 207.309 65.85C207.493 65.6667 207.743 65.575 208.059 65.575C208.376 65.575 208.618 65.6667 208.784 65.85C208.968 66.0333 209.059 66.275 209.059 66.575V73.325C209.059 74.4083 209.276 75.2083 209.709 75.725C210.143 76.225 210.826 76.475 211.759 76.475C212.826 76.475 213.684 76.1333 214.334 75.45C214.984 74.75 215.309 73.8333 215.309 72.7V66.575C215.309 66.275 215.401 66.0333 215.584 65.85C215.768 65.6667 216.018 65.575 216.334 65.575ZM234.648 65.525C237.348 65.525 238.698 67.1333 238.698 70.35V77.125C238.698 77.4417 238.606 77.6917 238.423 77.875C238.24 78.0417 237.998 78.125 237.698 78.125C237.398 78.125 237.148 78.0417 236.948 77.875C236.765 77.6917 236.673 77.4417 236.673 77.125V70.4C236.673 69.2833 236.473 68.475 236.073 67.975C235.673 67.475 235.048 67.225 234.198 67.225C233.181 67.225 232.381 67.5667 231.798 68.25C231.215 68.9333 230.923 69.8583 230.923 71.025V77.125C230.923 77.4417 230.823 77.6917 230.623 77.875C230.44 78.0417 230.198 78.125 229.898 78.125C229.598 78.125 229.356 78.0417 229.173 77.875C228.99 77.6917 228.898 77.4417 228.898 77.125V70.4C228.898 69.2833 228.698 68.475 228.298 67.975C227.898 67.475 227.265 67.225 226.398 67.225C225.398 67.225 224.598 67.5667 223.998 68.25C223.415 68.9333 223.123 69.8583 223.123 71.025V77.125C223.123 77.4417 223.031 77.6917 222.848 77.875C222.665 78.0417 222.423 78.125 222.123 78.125C221.823 78.125 221.573 78.0417 221.373 77.875C221.19 77.6917 221.098 77.4417 221.098 77.125V66.575C221.098 66.275 221.19 66.0333 221.373 65.85C221.573 65.6667 221.823 65.575 222.123 65.575C222.406 65.575 222.64 65.6667 222.823 65.85C223.006 66.0167 223.098 66.25 223.098 66.55V67.75C223.465 67.0333 223.973 66.4833 224.623 66.1C225.273 65.7167 226.023 65.525 226.873 65.525C228.773 65.525 230.015 66.325 230.598 67.925C230.948 67.1917 231.481 66.6083 232.198 66.175C232.915 65.7417 233.731 65.525 234.648 65.525Z" fill="#234CAD"/>
<rect x="1.5" y="1.5" width="377" height="377" rx="58.5" stroke="#234CAD" stroke-width="3"/>
</svg>
